<svg viewBox="0 0 330 200" xmlns="http://www.w3.org/2000/svg"><g><g><g><g><g><line x1="51.5625" y1="177" x2="46.5625" y2="177" style="visibility: inherit;" fill="rgb(0, 0, 0)" stroke="rgb(204, 204, 204)" stroke-width="1px"></line><line x1="51.5625" y1="164.35714285714286" x2="46.5625" y2="164.35714285714286" style="visibility: inherit;" fill="rgb(0, 0, 0)" stroke="rgb(204, 204, 204)" stroke-width="1px"></line><line x1="51.5625" y1="151.71428571428572" x2="46.5625" y2="151.71428571428572" style="visibility: inherit;" fill="rgb(0, 0, 0)" stroke="rgb(204, 204, 204)" stroke-width="1px"></line><line x1="51.5625" y1="139.07142857142858" x2="46.5625" y2="139.07142857142858" style="visibility: inherit;" fill="rgb(0, 0, 0)" stroke="rgb(204, 204, 204)" stroke-width="1px"></line><line x1="51.5625" y1="126.42857142857144" x2="46.5625" y2="126.42857142857144" style="visibility: inherit;" fill="rgb(0, 0, 0)" stroke="rgb(204, 204, 204)" stroke-width="1px"></line><line x1="51.5625" y1="113.78571428571429" x2="46.5625" y2="113.78571428571429" style="visibility: inherit;" fill="rgb(0, 0, 0)" stroke="rgb(204, 204, 204)" stroke-width="1px"></line><line x1="51.5625" y1="101.14285714285714" x2="46.5625" y2="101.14285714285714" style="visibility: inherit;" fill="rgb(0, 0, 0)" stroke="rgb(204, 204, 204)" stroke-width="1px"></line><line x1="51.5625" y1="88.5" x2="46.5625" y2="88.5" style="visibility: inherit;" fill="rgb(0, 0, 0)" stroke="rgb(204, 204, 204)" stroke-width="1px"></line><line x1="51.5625" y1="75.85714285714286" x2="46.5625" y2="75.85714285714286" style="visibility: inherit;" fill="rgb(0, 0, 0)" stroke="rgb(204, 204, 204)" stroke-width="1px"></line><line x1="51.5625" y1="63.21428571428571" x2="46.5625" y2="63.21428571428571" style="visibility: inherit;" fill="rgb(0, 0, 0)" stroke="rgb(204, 204, 204)" stroke-width="1px"></line><line x1="51.5625" y1="50.57142857142859" x2="46.5625" y2="50.57142857142859" style="visibility: inherit;" fill="rgb(0, 0, 0)" stroke="rgb(204, 204, 204)" stroke-width="1px"></line><line x1="51.5625" y1="37.92857142857143" x2="46.5625" y2="37.92857142857143" style="visibility: inherit;" fill="rgb(0, 0, 0)" stroke="rgb(204, 204, 204)" stroke-width="1px"></line><line x1="51.5625" y1="25.285714285714313" x2="46.5625" y2="25.285714285714313" style="visibility: inherit;" fill="rgb(0, 0, 0)" stroke="rgb(204, 204, 204)" stroke-width="1px"></line><line x1="51.5625" y1="12.642857142857157" x2="46.5625" y2="12.642857142857157" style="visibility: inherit;" fill="rgb(0, 0, 0)" stroke="rgb(204, 204, 204)" stroke-width="1px"></line><line x1="51.5625" y1="0" x2="46.5625" y2="0" style="visibility: inherit;" fill="rgb(0, 0, 0)" stroke="rgb(204, 204, 204)" stroke-width="1px"></line></g><g transform="translate(41.5625, 0)"><text x="0" y="177" dx="0em" dy="0.3em" style="text-anchor: end; visibility: hidden; font-family: Roboto, sans-serif; font-size: 12px; font-weight: 200;" fill="rgb(33, 33, 33)" stroke="none" stroke-width="1px">0.1</text><text x="0" y="164.35714285714286" dx="0em" dy="0.3em" style="text-anchor: end; visibility: inherit; font-family: Roboto, sans-serif; font-size: 12px; font-weight: 200;" fill="rgb(33, 33, 33)" stroke="none" stroke-width="1px">0.15</text><text x="0" y="151.71428571428572" dx="0em" dy="0.3em" style="text-anchor: end; visibility: hidden; font-family: Roboto, sans-serif; font-size: 12px; font-weight: 200;" fill="rgb(33, 33, 33)" stroke="none" stroke-width="1px">0.2</text><text x="0" y="139.07142857142858" dx="0em" dy="0.3em" style="text-anchor: end; visibility: inherit; font-family: Roboto, sans-serif; font-size: 12px; font-weight: 200;" fill="rgb(33, 33, 33)" stroke="none" stroke-width="1px">0.25</text><text x="0" y="126.42857142857144" dx="0em" dy="0.3em" style="text-anchor: end; visibility: hidden; font-family: Roboto, sans-serif; font-size: 12px; font-weight: 200;" fill="rgb(33, 33, 33)" stroke="none" stroke-width="1px">0.3</text><text x="0" y="113.78571428571429" dx="0em" dy="0.3em" style="text-anchor: end; visibility: inherit; font-family: Roboto, sans-serif; font-size: 12px; font-weight: 200;" fill="rgb(33, 33, 33)" stroke="none" stroke-width="1px">0.35</text><text x="0" y="101.14285714285714" dx="0em" dy="0.3em" style="text-anchor: end; visibility: hidden; font-family: Roboto, sans-serif; font-size: 12px; font-weight: 200;" fill="rgb(33, 33, 33)" stroke="none" stroke-width="1px">0.4</text><text x="0" y="88.5" dx="0em" dy="0.3em" style="text-anchor: end; visibility: inherit; font-family: Roboto, sans-serif; font-size: 12px; font-weight: 200;" fill="rgb(33, 33, 33)" stroke="none" stroke-width="1px">0.45</text><text x="0" y="75.85714285714286" dx="0em" dy="0.3em" style="text-anchor: end; visibility: hidden; font-family: Roboto, sans-serif; font-size: 12px; font-weight: 200;" fill="rgb(33, 33, 33)" stroke="none" stroke-width="1px">0.5</text><text x="0" y="63.21428571428571" dx="0em" dy="0.3em" style="text-anchor: end; visibility: inherit; font-family: Roboto, sans-serif; font-size: 12px; font-weight: 200;" fill="rgb(33, 33, 33)" stroke="none" stroke-width="1px">0.55</text><text x="0" y="50.57142857142859" dx="0em" dy="0.3em" style="text-anchor: end; visibility: hidden; font-family: Roboto, sans-serif; font-size: 12px; font-weight: 200;" fill="rgb(33, 33, 33)" stroke="none" stroke-width="1px">0.6</text><text x="0" y="37.92857142857143" dx="0em" dy="0.3em" style="text-anchor: end; visibility: inherit; font-family: Roboto, sans-serif; font-size: 12px; font-weight: 200;" fill="rgb(33, 33, 33)" stroke="none" stroke-width="1px">0.65</text><text x="0" y="25.285714285714313" dx="0em" dy="0.3em" style="text-anchor: end; visibility: hidden; font-family: Roboto, sans-serif; font-size: 12px; font-weight: 200;" fill="rgb(33, 33, 33)" stroke="none" stroke-width="1px">0.7</text><text x="0" y="12.642857142857157" dx="0em" dy="0.3em" style="text-anchor: end; visibility: inherit; font-family: Roboto, sans-serif; font-size: 12px; font-weight: 200;" fill="rgb(33, 33, 33)" stroke="none" stroke-width="1px">0.75</text><text x="0" y="0" dx="0em" dy="0.3em" style="text-anchor: end; visibility: hidden; font-family: Roboto, sans-serif; font-size: 12px; font-weight: 200;" fill="rgb(33, 33, 33)" stroke="none" stroke-width="1px">0.8</text></g><line x1="51.5625" y1="0" x2="51.5625" y2="177" fill="rgb(0, 0, 0)" stroke="rgb(204, 204, 204)" stroke-width="1px"></line></g></g><g transform="translate(51, 0)" clip-path="url(#clip_0)"><clipPath id="clip_0"><rect width="278" height="177"></rect></clipPath><g><g><g><line x1="0" y1="0" x2="0" y2="177" fill="rgb(0, 0, 0)" stroke="rgb(66, 66, 66)" stroke-width="1px" opacity="0.25"></line><line x1="25.3125" y1="0" x2="25.3125" y2="177" fill="rgb(0, 0, 0)" stroke="rgb(66, 66, 66)" stroke-width="1px" opacity="0.25"></line><line x1="50.625" y1="0" x2="50.625" y2="177" fill="rgb(0, 0, 0)" stroke="rgb(66, 66, 66)" stroke-width="1px" opacity="0.25"></line><line x1="75.93750000000001" y1="0" x2="75.93750000000001" y2="177" fill="rgb(0, 0, 0)" stroke="rgb(66, 66, 66)" stroke-width="1px" opacity="0.25"></line><line x1="101.25" y1="0" x2="101.25" y2="177" fill="rgb(0, 0, 0)" stroke="rgb(66, 66, 66)" stroke-width="1px" opacity="0.25"></line><line x1="126.5625" y1="0" x2="126.5625" y2="177" fill="rgb(0, 0, 0)" stroke="rgb(66, 66, 66)" stroke-width="1px" opacity="0.25"></line><line x1="151.875" y1="0" x2="151.875" y2="177" fill="rgb(0, 0, 0)" stroke="rgb(66, 66, 66)" stroke-width="1px" opacity="0.25"></line><line x1="177.18749999999997" y1="0" x2="177.18749999999997" y2="177" fill="rgb(0, 0, 0)" stroke="rgb(66, 66, 66)" stroke-width="1px" opacity="0.25"></line><line x1="202.49999999999997" y1="0" x2="202.49999999999997" y2="177" fill="rgb(0, 0, 0)" stroke="rgb(66, 66, 66)" stroke-width="1px" opacity="0.25"></line><line x1="227.81249999999997" y1="0" x2="227.81249999999997" y2="177" fill="rgb(0, 0, 0)" stroke="rgb(66, 66, 66)" stroke-width="1px" opacity="0.25"></line><line x1="253.125" y1="0" x2="253.125" y2="177" fill="rgb(0, 0, 0)" stroke="rgb(66, 66, 66)" stroke-width="1px" opacity="0.25"></line><line x1="278.4375" y1="0" x2="278.4375" y2="177" fill="rgb(0, 0, 0)" stroke="rgb(66, 66, 66)" stroke-width="1px" opacity="0.25"></line></g><g><line x1="0" y1="177" x2="278.4375" y2="177" fill="rgb(0, 0, 0)" stroke="rgb(66, 66, 66)" stroke-width="1px" opacity="0.25"></line><line x1="0" y1="164.35714285714286" x2="278.4375" y2="164.35714285714286" fill="rgb(0, 0, 0)" stroke="rgb(66, 66, 66)" stroke-width="1px" opacity="0.25"></line><line x1="0" y1="151.71428571428572" x2="278.4375" y2="151.71428571428572" fill="rgb(0, 0, 0)" stroke="rgb(66, 66, 66)" stroke-width="1px" opacity="0.25"></line><line x1="0" y1="139.07142857142858" x2="278.4375" y2="139.07142857142858" fill="rgb(0, 0, 0)" stroke="rgb(66, 66, 66)" stroke-width="1px" opacity="0.25"></line><line x1="0" y1="126.42857142857144" x2="278.4375" y2="126.42857142857144" fill="rgb(0, 0, 0)" stroke="rgb(66, 66, 66)" stroke-width="1px" opacity="0.25"></line><line x1="0" y1="113.78571428571429" x2="278.4375" y2="113.78571428571429" fill="rgb(0, 0, 0)" stroke="rgb(66, 66, 66)" stroke-width="1px" opacity="0.25"></line><line x1="0" y1="101.14285714285714" x2="278.4375" y2="101.14285714285714" fill="rgb(0, 0, 0)" stroke="rgb(66, 66, 66)" stroke-width="1px" opacity="0.25"></line><line x1="0" y1="88.5" x2="278.4375" y2="88.5" fill="rgb(0, 0, 0)" stroke="rgb(66, 66, 66)" stroke-width="1px" opacity="0.25"></line><line x1="0" y1="75.85714285714286" x2="278.4375" y2="75.85714285714286" fill="rgb(0, 0, 0)" stroke="rgb(66, 66, 66)" stroke-width="1px" opacity="0.25"></line><line x1="0" y1="63.21428571428571" x2="278.4375" y2="63.21428571428571" fill="rgb(0, 0, 0)" stroke="rgb(66, 66, 66)" stroke-width="1px" opacity="0.25"></line><line x1="0" y1="50.57142857142859" x2="278.4375" y2="50.57142857142859" fill="rgb(0, 0, 0)" stroke="rgb(66, 66, 66)" stroke-width="1px" opacity="0.25"></line><line x1="0" y1="37.92857142857143" x2="278.4375" y2="37.92857142857143" fill="rgb(0, 0, 0)" stroke="rgb(66, 66, 66)" stroke-width="1px" opacity="0.25"></line><line x1="0" y1="25.285714285714313" x2="278.4375" y2="25.285714285714313" fill="rgb(0, 0, 0)" stroke="rgb(66, 66, 66)" stroke-width="1px" opacity="0.25"></line><line x1="0" y1="12.642857142857157" x2="278.4375" y2="12.642857142857157" fill="rgb(0, 0, 0)" stroke="rgb(66, 66, 66)" stroke-width="1px" opacity="0.25"></line><line x1="0" y1="0" x2="278.4375" y2="0" fill="rgb(0, 0, 0)" stroke="rgb(66, 66, 66)" stroke-width="1px" opacity="0.25"></line></g></g></g><g><g><line x1="0" y1="202.28571428571428" x2="278.4375" y2="202.28571428571428" fill="rgb(0, 0, 0)" stroke="rgb(153, 153, 153)" stroke-width="1.5px"></line></g></g><g><g><line x1="25.3125" y1="0" x2="25.3125" y2="177" fill="rgb(0, 0, 0)" stroke="rgb(153, 153, 153)" stroke-width="1.5px"></line></g></g><g><g><g><g><g><path stroke="rgb(255, 112, 67)" stroke-width="2px" d="M25.3125,175.66917273402214L25.6005,163.72814915766855L25.879781249999997,155.20675091069867L26.170875,151.85663527529186L26.456062499999998,150.37521096531438L26.7440625,154.30752193194374L27.028968749999997,151.58909920481565L27.309375,154.85582265421093L27.599765624999996,156.43567271753238L27.886078125,154.9198263893266L28.1716875,156.46494086490137L28.4625,159.49599212929974L28.749515624999997,160.9686810243231L29.029921874999996,157.12382508273063L29.314124999999997,157.53554040996195L29.598890625,153.17528283001843L29.888718750000002,151.05622990706203L30.177,152.30653438449508L30.469078125,152.9141801755296L30.75496875,150.92934292039413L31.04296875,152.24486479380806L31.345171875,150.6040565080702L31.786312499999998,149.8066238411713L32.074453125,153.97937252618695L32.36484375,160.567629143691L32.652703124999995,159.20922096773475L32.93746875,149.42843299833055L33.218015625,151.51542222968612L33.51121875,152.5296989934438L33.80259375,148.46233671232847L34.093828125,144.2054472832308L34.384640625,139.8564476598335L34.67756249999999,144.58328599061224L34.975265625,151.44083020516376L35.260734375,150.21329590741396L35.549015625,158.73731581047863L35.833499999999994,158.31968869746575L36.124734375,162.67702270640453L36.419765625000004,162.5145376101563L36.713109374999995,160.1554184921095L37.002796874999994,152.16843639029472L37.2943125,150.56691251340075L37.581890625,147.5084224846433L37.876078125,146.02199633066726L38.16534375,140.73929049729566L38.453624999999995,145.01234760940332L38.744859375000004,151.64935415174423L39.03384375,152.59478990673495L39.324093749999996,146.2138195365342L39.615750000000006,152.2332695083298L39.903046875,141.47781983705275L40.189640624999996,138.53082072139907L40.476796875,127.97797757947819L40.7716875,136.53020010675704L41.06503125,138.40642889374496L41.356546875,137.0381247229515L41.641875,140.93343161848506L41.926359375,142.82655076971437L42.214640625,141.46645531594223L42.500109374999994,131.68484929037842L42.791906250000004,136.05158839698495L43.079765625,131.33337339235214L43.36804687499999,142.72122325767037L43.65646875,136.85496535923227L43.943484375,138.5642648064479L44.224312499999996,141.67513569906433L44.505843750000004,134.06641738116272L44.790749999999996,132.64872970324956L45.081703125,131.9597334917837L45.36295312499999,133.90503075759833L45.649828125,132.57029580419723L45.934875,134.2017640414313L46.223156249999995,130.4343587555531L46.51621875,130.88354921120325L46.803515624999996,140.2224573443624L47.09559375,135.6405651253646L47.377828125,133.41376550693164L47.66779687500001,134.61169031696022L47.954812499999996,135.1938817746341L48.246468750000005,130.91652797388963L48.53742187499999,126.55758460214088L48.818953125,133.5597377585015L49.1068125,136.96278419249276L49.40296875,138.61666475941252L49.68885937499999,130.29985107990498L49.9753125,133.09832790542526L50.264578125,129.89808879345415L50.55412499999999,128.3427725850362L50.84310937499999,129.86703833233202L51.141093749999996,126.04753263634386L51.434296874999994,115.07065129638043L51.72215624999999,127.97708817190191L52.009453125,122.84886356042259L52.298296875000005,124.91684912178283L52.583625,109.96083638576455L52.872749999999996,116.37311849031207L53.15878124999999,114.92918487058296L53.44621875,137.02893706067752L53.73590624999999,131.80836484290674L54.028124999999996,129.27116674507016L54.31725,128.03808846952157L54.604265625,122.87850970506572L54.89128125,124.93125714807941L55.17787499999999,116.8082908336709L55.461937500000005,121.98113077658152L55.746562499999996,113.09437999253592L56.032734375,113.33571796066373L56.312437499999994,115.73315763776081L56.598046875,126.01891489254317L56.88534375,112.77658977494106L57.17221875,126.86217427248239L57.460499999999996,117.74671655613075L57.751734375,124.717355102284L58.035515624999995,123.54478658654051L58.324921875,107.01386456904982L58.61896874999999,119.50118903656266L58.906265624999996,125.57002872777392L59.201015625,117.11873382140242L59.494359374999995,122.13200606861902L59.78334374999999,115.44785480905314L60.08090624999999,103.07875572519092L60.37157812499999,115.30857671386026L60.658874999999995,114.41181756722735L60.9474375,118.53629534450299L61.359046875,122.82094096884593L61.686703124999994,115.78267717056342L61.97498437499999,107.80177824205889L62.263687499999996,108.48336408534492L62.548593749999995,104.2543120826427L62.839265624999996,99.91884338474244L63.12121875,95.53165617297594L63.40978124999999,91.11933376347045L63.70087499999999,82.1344890519593L63.98971875,91.4487588164173L64.274765625,98.25564721989612L64.5654375,106.12409383316077L64.859765625,109.94815888720741L65.1515625,102.68605293176088L65.44012500000001,96.87652001282692L65.732625,98.61338586339896L66.02090625,92.61705439301603L66.31087500000001,91.98298672299693L66.59775,100.79543140708078L66.87464062499998,100.51797680100631L67.16334375,95.8228350132802L67.45218750000001,88.9806933819061L67.7385,97.05616741872366L68.024953125,89.58009293095161L68.31618749999998,81.38641800735513L68.6143125,91.08519628873967L68.89978124999999,86.67820096177938L69.19115624999999,89.09670395541588L69.47325,87.99194698573626L69.76251562499999,87.45503509847195L70.04685937500001,73.5131916270091L70.342453125,71.29775454905213L70.62890625,79.34165757424347L70.91549999999998,94.65174544078664L71.20195312499999,90.69169714762646L71.487421875,102.44801409803772L71.7795,105.88143471135062L72.069046875,98.42947555770752L72.358171875,108.48872382992411L72.64279687500002,97.41646864474725L72.93403125,87.47504990221208L73.22807812499998,100.88472353676634L73.51621875,100.56137277603351L73.80295312499999,95.84392545714338L74.093625,82.15049119049739L74.38542187499999,84.61608758198587L74.6814375,88.09451685283626L74.96845312499998,82.94458133134334L75.267,69.04096167159763L75.555140625,80.52500566038756L75.84215625,76.98564559386102L76.13296874999999,61.58462005400729L76.4735625,65.50046876457324L76.824703125,60.563122964147375L77.543015625,69.56432390144056L77.91046875,71.6587542590128L78.1970625,77.23695013533211L78.47718749999999,84.50825605376254L78.76631249999998,78.92150528504126L79.06415625000001,83.04680043193419L79.353,78.21123785283268L79.643390625,80.42145716192859L79.92801562499999,70.09487274984905L80.22248437500001,74.19675429729156L80.51596874999998,69.34981658222242L80.80776562499997,69.27435427728578L81.10448437499998,66.95753017249963L81.406265625,58.99110538381261L81.70228125000001,55.119422936510716L81.99745312499999,64.6385323900569L82.294734375,69.26481958448034L82.577671875,66.95289631179617L82.87115624999998,61.269002752097684L83.167453125,58.50663048208423L83.46389062499999,59.4442669834447L83.75343749999999,62.180107747692865L84.04649999999998,68.0700252082914L84.33646875000001,64.09207682038137L84.62840625000001,68.99924217761799L84.91809375,57.703227993713185L85.2193125,49.933215675748436L85.52334375,55.27758738756552L85.82343749999998,51.03450376574767L86.114953125,53.53266397471814L86.41096874999998,68.42767025716492L86.70628124999998,71.10634058789483L87.00215624999998,63.28757667028166L87.29367187499999,59.48765740632167L87.5975625,55.36074721945011L87.895828125,51.074919444043566L88.18706249999998,58.11260484354389L88.48575000000001,59.25277052311407L88.78471875000001,55.246592194211225L89.07300000000002,57.8598883755384L89.37042187499999,68.25055189137659L89.65771874999999,64.17981278836078L89.94360937500001,57.64113473512112L90.23428125,59.023636050420606L90.52298437500001,52.85508341589524L90.94710937500001,54.41746568468986L91.2718125,71.13783718616341L91.560796875,63.30288401704019L91.84893749999998,64.05539562602026L92.134546875,64.42111626798459L92.42943749999999,66.8790059245662L92.71771875,68.07354029766489L93.00571875,70.9342334275778L93.29582812499999,56.36348431660664L93.5848125,58.40269794702256L93.8829375,57.113606346817754L94.172484375,56.48710782911819L94.4595,51.622330700342275L94.75059375,53.81834786493112L95.04365625000001,57.16576163150829L95.334328125,51.95215644830383L95.62725,60.819091452201384L95.921578125,62.848272439508584L96.20943749999999,70.67490654646609L96.49771875,53.957294281068876L96.78768749999999,59.51343901433818L97.077515625,55.37327708094614L97.37451562499999,55.64130780590461L97.66265624999998,46.65096529315598L97.94939062499998,40.001509407373156L98.24132812499998,55.01107699030907L98.5303125,53.18512913726798L98.818171875,54.577867905276996L99.1096875,55.2547389465294L99.40767187499999,57.863847697165035L99.71015625,63.69217339914794L99.99745312499999,59.68429141655067L100.294171875,53.176161923834435L100.58540624999999,52.293360414961306L100.87087499999998,49.584169457062046L101.16435937499999,48.267502651522975L101.45010937499998,59.02834970696586L101.74837500000001,57.417673102150175L102.04593749999998,47.51427882713129L102.34434375,54.10198407913756L102.63712499999998,52.74330998243863L102.932296875,65.76389479233009L103.226765625,49.290393143971755L103.51743749999999,41.28427134286962L103.80557812499998,41.953602743438495L104.10018749999998,42.27889780411493L104.39535937500001,42.43699120360371L104.68982812499999,44.79397402034222L104.98049999999999,48.219617093864095L105.265125,54.444778476769706L105.55734375,57.47020690886183L105.85476562499998,61.22071455144556L106.151484375,63.04346126574126L106.44693749999998,63.929316168888946L106.74773437499998,55.239243953470826L107.045015625,53.2960182813646L107.33793750000001,54.631760029307976L107.63114062499999,53.000781094221466L107.92265624999999,45.367669311277936L108.21023437499998,53.05873185443282L108.50625,49.956139976645176L108.7959375,50.728429748627335L109.08520312499999,53.38391200239766L109.37235937499999,40.993572083477616L109.657125,32.69171745829552L109.946390625,33.21731495963098L110.23537499999999,38.03306194118449L110.52618749999999,38.093357802902005L110.82304687499999,29.002063893348794L111.11484374999999,38.26459934755834L111.41521875,49.6066398520651L111.70518750000001,43.71811666758995L111.99881249999999,47.69675042042649L112.28653125,45.07006757513112L112.57312499999999,43.79349971231757L112.87012499999999,43.17308773099018L113.15995312499997,33.75096206298664L113.4455625,33.73210783751085L113.738625,40.56340070442108L114.03056249999997,30.202504743487058L114.32699999999998,36.56786417613855L114.62385937499998,30.54082341532874L114.918046875,34.45212987933609L115.21040624999998,38.633181992161184L115.49967187499999,31.544567873915742L115.792875,34.93994968620936L116.08396875,38.8702624183016L116.385328125,31.65978896101998L116.68218749999998,41.836403155033494L116.98959375,37.66163220824562L117.297,31.07239467893279L117.59639062499998,36.990630684765186L117.90379687500001,44.427192232773656L118.20234375,45.761211720518794L118.50342187499999,41.84923859565849L118.811671875,37.667870232389376L119.10684375,28.795276934079666L119.40075,29.04349544027508L119.6955,24.603830785112116L120.12539062500001,38.40720748154228L120.439125,22.31414656340704L120.726,28.17381550471517L121.01723437499999,44.702518904443316L121.30874999999999,50.45531933212424L121.600828125,46.41073206621619L121.883765625,46.725212079571875L122.17331249999998,37.757443920984315L122.46089062499999,47.08001289016314L122.74340624999998,49.33063198459706L123.03675,57.264881138252896L123.327703125,49.72017910399474L123.625125,41.49314731944079L123.91607812499998,46.615415317226L124.20239062499998,39.98423211907118L124.48996874999999,36.76147708476793L124.77276562499999,35.195218138096585L125.065265625,29.87371744084033L125.354953125,27.287468101973783L125.64759374999998,28.310700347871638L125.93559375,31.088140643964966L126.22626562499998,41.558582072944766L126.51131249999999,42.08691775825501L126.80142187499997,40.06353172999829L127.096453125,50.48092098993093L127.39275,53.263622745671185L127.68482812499998,56.89616522354794L127.974375,44.98067657354365L128.266875,46.03020511013304L128.55614062499998,37.41967053383702L128.84203125,40.07540675024861L129.129890625,50.48669224977258L129.428859375,44.14582213287579L129.719671875,38.784009831476986L130.01484374999998,47.57892392266259L130.30678124999997,33.61204902755241L130.609265625,26.824147828528897L130.90289062499997,21.24507842121648L131.195671875,20.813800113849634L131.487328125,22.884348281056308L131.7819375,26.170784114905768L132.073734375,34.60844795064805L132.36609375,38.70915257481877L132.65324999999999,31.581489577087343L132.942796875,39.518200229855275L133.2354375,34.25483616202206L133.531171875,24.85639295129417L133.82310937499997,29.409347249228315L134.11054687499998,40.742688483102754L134.400234375,34.849937453100296L134.6889375,20.58531332958422L134.978203125,31.89390914898179L135.26915624999998,21.428832998369607L135.558703125,23.183254262933012L135.847265625,28.59620184668478L136.140890625,28.94674494780119L136.43156249999998,26.83695947035679L136.717453125,32.65205200207974L137.01079687499998,35.478186972497085L137.300203125,30.011240294358974L137.584125,29.63445363337087L137.8670625,40.85209018579602L138.1550625,30.342807831435298L138.44728124999997,38.91620090146838L138.73907812499996,36.24241391301296L139.03129687499998,39.50326003252814L139.3205625,38.80787407529502L139.61024999999998,29.3493188017318L139.90598437499997,31.59290921254099L140.196234375,39.52375017268574L140.494359375,34.25753343423767L140.78671874999998,36.25845094852585L141.075703125,34.950747435882924L141.36890624999998,32.03505410415148L141.66309374999997,30.618027144930007L141.953765625,34.489650891922345L142.23937499999997,31.810961183786638L142.533140625,37.34957400612413L142.82507812499998,35.48103324187569L143.11096874999998,30.01262358127699L143.40346875,38.75573135589145L143.6990625,40.72473230976708L143.99409375,34.84121075285917L144.28771875,38.82227529669339L144.58781249999998,36.19676606909233L144.87975,30.360469735304267L145.171546875,36.64463516216172L145.464890625,32.85828353912298L145.7589375,33.29826607491312L146.05115625,38.072404183211596L146.34351562499998,28.991880434179258L146.640375,31.419194165910486L146.93625,37.159175235436344L147.234796875,19.427445720482055L147.5251875,26.770878895053624L147.81740624999998,32.61993684248239L148.11440624999997,33.18242958034579L148.4060625,33.45580105094739L148.698140625,29.028360736485826L148.997953125,17.756027045309608L149.448234375,19.11812114515888L149.741015625,22.060248302272637L150.03098437499997,28.050420949803833L150.322359375,28.681495431917053L150.619078125,33.548496479398004L150.91115625,26.793261290125862L151.20928124999998,23.51021698813958L151.49953125,17.354358608200304L151.781765625,18.922910284723752L152.07384374999998,19.685226399514143L152.36845312499997,31.456466900967705L152.66249999999997,34.89713261335663L152.95584374999999,36.56929614957764L153.24468749999997,37.38196762818104L153.53324999999998,37.77692596678232L153.82265625,28.848278020994602L154.111921875,24.508955119341792L154.40414062499997,29.240492462899468L154.69171874999998,26.97972076269456L154.98435937499997,25.880985716394942L155.2764375,29.907299333067293L155.57470312499998,27.30378890159611L155.86748437499998,35.15908827697955L156.1635,34.416457177511425L156.45220312499998,22.654791340235025L156.7445625,19.218771167905665L157.04746874999998,22.109164213327556L157.33940624999997,21.233745808815627L157.62740624999998,18.528143039635843L157.919765625,17.213220093814467L158.20889062499995,25.6947652404932L158.5040625,32.096945606366035L158.798109375,28.367956990419305L159.08849999999998,26.555668523069194L159.38043749999997,30.23519517711096L159.67223437499996,29.743295706388334L159.96515624999998,24.943933714443133L160.25512499999996,22.611443786357796L160.55212499999996,21.477853681308325L160.8508125,36.88798260909363L161.13993749999997,28.41625154915792L161.44396874999998,31.1394385277901L161.73801562499997,34.74305682399232L162.03206249999997,27.373817617598686L162.325828125,23.79236736329138L162.61467187499997,17.491483690524056L162.90942187499996,23.549851923907095L163.20290624999998,26.49421888533123L163.49231249999997,21.08473295482244L163.78579687499996,20.735872217182145L164.07590625,22.846475323275907L164.3664375,23.872228432837474L164.66020312499998,26.650893868671368L164.951296875,23.441026421312717L165.2461875,19.600881417309438L165.53812499999998,29.13531806829873L165.84046874999996,31.488904856092535L166.13184374999994,25.79229976119939L166.423640625,29.864197958842265L166.71037499999997,25.00269220913576L166.99612499999998,24.92014983936538L167.28665624999996,18.03958597389602L167.58084374999999,19.255930784451877L167.8708125,24.40737321155599L168.166265625,29.191123655715575L168.46171874999996,33.796175796164086L168.75815624999996,31.473932287248147L169.04953124999997,32.62547136650193L169.3445625,30.904969934432337L169.62946874999997,30.0688062384465L169.92281249999996,22.821982408436433L170.21390624999998,23.860324876225516L170.49993749999996,33.48556476064944L170.789484375,26.76267647481406L171.07720312499998,21.215203343311078L171.36843749999997,20.799280825987612L171.664171875,20.597142482568376L171.95371874999998,18.2187538230797L172.244109375,17.062856934568174L172.53464062499998,21.06138989592554L172.84359375,32.12528236022365L173.14537499999997,26.101579228207118L173.43717187499996,25.454208930634053L173.72657812499997,20.579288116839603L174.02554687499997,22.770375450509423L174.32339062499997,21.555094470085997L174.62826562499998,25.52476676277415L174.92540624999998,22.893728647846647L175.21762499999997,26.175342973165844L175.52024999999998,34.61066355576245L175.81275,25.029325064651992L176.11199999999997,31.773541680907215L176.40379687499998,30.490932107233288L176.69685937499997,27.587434429840762L176.984015625,35.29694000370645L177.27693749999997,25.362855418352783L177.57590624999997,29.655488008218786L177.872484375,27.181408597719734L178.28746875,19.138557730456256L178.6235625,28.910628756488055L178.920703125,38.22016187104403L179.213203125,33.62398951963977L179.50710937499997,24.549801483096367L179.79989062499996,26.980194371097188L180.09126562499998,21.32091704090468L180.38474999999997,32.25141255268353L180.67317187499998,28.443027926329606L180.96159374999996,22.031854148747623L181.25507812499998,25.75647196660373L181.54982812499995,29.846785650668753L181.8478125,27.274379251950432L182.14157812499997,23.744040317586336L182.43112499999998,24.30844502007235L182.726859375,26.862895130067535L183.018234375,25.8242084589382L183.31171875,13.918651867103938L183.60970312499998,19.533306233137928L183.90009374999997,15.421579981269502L184.1979375,8.862974426956963L184.49226562499996,10.235798723465557L184.78504687499998,15.463290180742671L185.07740625,22.56414987815331L185.37370312499996,23.735018266507918L185.66395312499998,19.743761454074303L185.958,24.64445891699249L186.25612499999997,15.62545076103583L186.54721874999996,20.36281049558884L186.842109375,18.104868477407642L187.1375625,21.567807505745503L187.42865625,16.410347599756793L187.72143749999998,9.343515489541764L188.01857812499998,17.309789953642706L188.31107812499997,16.62110049402179L188.59795312499998,25.40699511499395L188.891296875,27.396790476199445L189.186046875,30.643980446332296L189.47249999999997,29.941965347229882L189.76640624999996,11.359582865639773L190.05932812499998,31.970502992678725L190.35028124999997,30.58665530475424L190.6464375,29.914105328422917L190.943859375,38.707851485004355L191.24803124999997,42.98161211710295L191.54390624999996,26.817456640876472L191.83556249999995,28.082274777778338L192.12848437499997,33.2572752414866L192.421828125,33.49217604226184L192.71742187499999,35.88648725602558L193.00879687499997,37.050122505914764L193.29567187499995,42.17595583326542L193.584796875,42.38696140577082L193.87153124999998,47.0498089631824L194.15615625,47.035803451497486L194.441484375,49.309146197405546L194.73454687499998,41.293385326838454L195.02634375,37.39772554374282L195.322359375,26.383837190810457L195.61753124999998,27.871535725046247L195.91171874999995,21.754108938923903L196.20253125,18.781039520868454L196.49981249999996,28.736874906628405L196.79231249999998,31.29526147952073L197.08509375,27.9783385047725L197.37787499999996,28.646463363631806L197.66671874999997,19.850574346689516L197.95739062499996,26.976519407390455L198.25424999999998,23.599280433130197L198.5473125,19.67779286705273L198.84009375,17.771949909939085L199.134703125,10.005254212290374L199.44182812499997,13.07109612372459L199.738125,30.522149011520984L200.03709375,25.32245642073763L200.33339062499996,31.91600351996482L200.63432812499997,35.120467410189235L200.93962499999998,20.71679088872944L201.23395312499997,13.716604099300012L201.53053124999997,14.874812168811241L201.82668749999996,15.437701290593715L202.11862499999995,15.711265403779995L202.41871874999998,20.40451641196247L202.71543749999995,11.284681532273728L203.00892187499997,20.533346074997404L203.31210937499998,25.028197042761107L203.61403124999998,31.77299346226821L203.92298437499997,39.61127111805316L204.21309374999998,27.45962033992531L204.50882812499995,19.273768637168164L204.801609375,22.135892983389134L205.09593749999996,21.24673599106552L205.38576562499998,16.254306843622313L205.68121874999997,27.508882825486772L205.9723125,23.858009054324988L206.26270312499997,28.924132675301284L206.55562499999996,31.386268755095774L206.85290625,25.74241861611498L207.26676562499998,13.87890200349185L207.61298437499997,21.794137224009443L207.91195312499997,21.08064269200698L208.212046875,23.01403377404081L208.51509374999998,19.39336299073529L208.808578125,13.073418140874825L209.09868749999998,12.282074368429637L209.39217187499997,25.578377842543127L209.68762499999997,20.639634208027395L209.98153125,15.959255377065787L210.27304687499995,22.80518896356635L210.56484374999997,17.011714988257722L210.85664062499995,11.915937211670707L211.144078125,13.999688061423416L211.44079687499996,19.572689823577186L211.73189062499998,22.281168679983914L212.03099999999998,12.196734534532162L212.321671875,23.256753258681975L212.61192187499998,26.351772934031832L212.909765625,30.13610192083882L213.19973437499996,20.574538685492115L213.49012499999995,22.76806722687457L213.78121875,12.433367228321023L214.07610937499996,16.53130847410245L214.36776562499998,25.36335619331314L214.66096874999997,27.37558196026255L214.95515625,28.353523682999974L215.24807812499998,15.147899065997972L215.54465624999995,22.410869796387406L215.83926562499997,19.100225297595703L216.13092187499998,17.49125207118297L216.42117187499997,21.269589932320315L216.71395312499996,13.985264434485165L217.00715624999998,19.565679940885204L217.30317187499998,13.157164178647717L217.591171875,14.602924367374227L217.894078125,17.58571324368227L218.18939062499996,19.035348637568013L218.488921875,19.73987143899646L218.786765625,13.241821246729767L219.08545312499996,19.204366551636067L219.38034374999998,19.82201414523353L219.66834374999996,20.122190875721927L219.95395312499997,27.10852504050019L220.25137499999997,23.663435170821522L220.548234375,17.428822644983722L220.850015625,18.95909980660051L221.15362499999998,21.98296393173323L221.45146874999998,16.61211362278681L221.75479687499998,20.842328646399782L222.05320312499998,34.29896801754112L222.34471875,24.87784103307645L222.642703125,18.01902389403963L222.93914062499996,19.245937613641665L223.24064062499997,22.12236710595523L223.52807812499998,14.399714140871707L223.82170312499997,22.04725192277603L224.10914062499998,18.92350701102059L224.40206249999997,17.405366983907467L224.70314062499997,18.94770035531745L224.99859375,10.57666892874425L225.29503124999997,11.0686542513342L225.58851562499996,27.268812836952275L225.88368749999998,21.461185615310246L226.178296875,25.47912705935317L226.469671875,20.591398327397073L226.76990625,13.655663314492491L227.06409374999998,21.685643221155704L227.35884374999995,14.187466332859145L227.65710937499998,17.383800638907978L227.954390625,14.376920262473748L228.25617187499998,22.036174097874635L228.55260937499995,34.87917690695789L228.849609375,47.96132454593328L229.15068749999998,54.31924829847533L229.445578125,36.88784667419744L229.73118749999998,48.93753805281169L230.021859375,41.112783768565805L230.31267187499998,53.2710069052617L230.60362499999997,36.37840135709559L230.89865624999996,32.72889390986084L231.19031249999998,33.23538271509171L231.48028125,31.201386849846976L231.77221875,30.212864859338L232.05754687499996,32.0125925965376L232.346671875,23.766662578468722L232.64873437499998,22.039290014274226L232.94418749999997,16.63948809890175L233.24048437499997,25.415931490965587L233.54479687499995,25.120984130334666L233.83673437499996,27.257789137655024L234.134859375,28.296276371212723L234.43326562499996,19.680383468373822L234.72745312499998,13.212910093007178L235.02332812499998,10.069718032578953L235.31146874999996,6.261969519893369L235.59946874999997,11.251859763219594L235.89421875,20.51739469523712L236.295140625,13.619697549262732L236.65598437499997,19.388014434667078L236.95720312499998,19.911267016386617L237.25574999999998,15.605268921928356L237.55246874999997,22.633151546369575L237.85143749999995,21.488403652674048L238.13957812499999,23.212205600924968L238.43348437499998,21.769823923187946L238.72598437499997,21.068826427807753L239.02607812499997,27.568589918813917L239.33067187499998,28.447325550855947L239.62598437499997,24.314092218854395L239.91454687499996,22.30534081950165L240.21112499999995,35.00999193366863L240.497296875,38.904302950566795L240.79246874999998,40.79693810477929L241.0891875,34.876302769235124L241.37746874999996,29.718724571573652L241.67615625,36.332747012588634L241.96598437499998,21.305958775495554L242.26073437499997,32.244142835694696L242.56293749999998,30.719644268460016L242.85951562499997,29.978737964783956L243.15454687499997,22.77820922743646L243.44789062499999,26.119200534846517L243.74517187499995,14.0620180159954L244.03260937499996,19.602982181499186L244.32201562499998,20.015741341347024L244.61142187499993,29.336939991380987L244.90687499999999,24.746444836949568L245.2066875,20.235314767308935L245.49679687499997,18.042905553463573L245.79224999999997,30.658298969787147L246.08798437499996,29.94892414962893L246.37584374999997,31.884317411619L246.67017187499997,25.984470263185248L246.96112499999998,18.55684569987249L247.25939062499998,19.507319011276426L247.55048437499997,22.249398465205758L247.83876562499998,19.021750230641423L248.131828125,15.172963764056194L248.41757812499995,17.862752390469726L248.71274999999994,21.450139087493703L249.00539062499996,27.753907871421287L249.29789062499998,26.257240651236128L249.59840624999995,27.810009806813135L249.89737499999998,30.844805041010552L250.18903124999994,18.638818977308606L250.49024999999997,21.827307448697383L250.78457812499997,21.096763421205353L251.079046875,23.02186844843122L251.3716875,14.836871793315046L251.66390624999994,15.419262268102555L251.96062499999996,17.982453463436258L252.25171874999998,14.667865535194496L252.53887499999996,10.776826377482017L252.824625,15.726229620594696L253.10446875,15.851490172160474L253.393875,27.31311392315631L253.68553125,28.323164216966354L253.97409374999998,24.253749810584047L254.26195312500002,19.995864984495306L254.552203125,24.76698123277712L254.84132812499996,22.525444880268086L255.11821874999998,14.595609939187767L255.41184375,15.302009006996697L255.70504687499997,11.085020104777874L255.9931875,9.035563498299535L256.276546875,12.599826436725026L256.559203125,9.771759375625841L256.8538125,15.237767057692556L257.144765625,11.053798517416078L257.43290625,9.020389806841703L257.72371875,19.432900296437428L258.024796875,17.652932120620044L258.32109375,9.947411566681332L258.619359375,17.603283447132533" style="fill: none;" fill="none"></path></g></g></g></g><g opacity="0.2"><g><g><g><path stroke="rgb(255, 112, 67)" stroke-width="2px" d="M25.3125,175.66917273402214L25.6005,157.9248116995607L25.879781249999997,149.05263118233L26.170875,149.05263118233L26.456062499999998,149.05263118233L26.7440625,157.9248116995607L27.028968749999997,149.05263118233L27.309375,157.9248116995607L27.599765624999996,157.9248116995607L27.886078125,153.4887233248779L28.1716875,157.9248116995607L28.4625,162.3609038421086L28.749515624999997,162.3609038421086L29.029921874999996,153.4887233248779L29.314124999999997,157.9248116995607L29.598890625,149.05263118233L29.888718750000002,149.05263118233L30.177,153.4887233248779L30.469078125,153.4887233248779L30.75496875,149.05263118233L31.04296875,153.4887233248779L31.345171875,149.05263118233L31.786312499999998,149.05263118233L32.074453125,157.9248116995607L32.36484375,166.7969922167914L32.652703124999995,157.9248116995607L32.93746875,140.1804506650993L33.218015625,153.4887233248779L33.51121875,153.4887233248779L33.80259375,144.61654280764716L34.093828125,140.1804506650993L34.384640625,135.7443585225514L34.67756249999999,149.05263118233L34.975265625,157.9248116995607L35.260734375,149.05263118233L35.549015625,166.7969922167914L35.833499999999994,157.9248116995607L36.124734375,166.7969922167914L36.419765625000004,162.3609038421086L36.713109374999995,157.9248116995607L37.002796874999994,144.61654280764716L37.2943125,149.05263118233L37.581890625,144.61654280764716L37.876078125,144.61654280764716L38.16534375,135.7443585225514L38.453624999999995,149.05263118233L38.744859375000004,157.9248116995607L39.03384375,153.4887233248779L39.324093749999996,140.1804506650993L39.615750000000006,157.9248116995607L39.903046875,131.30827014786857L40.189640624999996,135.7443585225514L40.476796875,117.99999748808997L40.7716875,144.61654280764716L41.06503125,140.1804506650993L41.356546875,135.7443585225514L41.641875,144.61654280764716L41.926359375,144.61654280764716L42.214640625,140.1804506650993L42.500109374999994,122.43609339850289L42.791906250000004,140.1804506650993L43.079765625,126.87218177318573L43.36804687499999,153.4887233248779L43.65646875,131.30827014786857L43.943484375,140.1804506650993L44.224312499999996,144.61654280764716L44.505843750000004,126.87218177318573L44.790749999999996,131.30827014786857L45.081703125,131.30827014786857L45.36295312499999,135.7443585225514L45.649828125,131.30827014786857L45.934875,135.7443585225514L46.223156249999995,126.87218177318573L46.51621875,131.30827014786857L46.803515624999996,149.05263118233L47.09559375,131.30827014786857L47.377828125,131.30827014786857L47.66779687500001,135.7443585225514L47.954812499999996,135.7443585225514L48.246468750000005,126.87218177318573L48.53742187499999,122.43609339850289L48.818953125,140.1804506650993L49.1068125,140.1804506650993L49.40296875,140.1804506650993L49.68885937499999,122.43609339850289L49.9753125,135.7443585225514L50.264578125,126.87218177318573L50.55412499999999,126.87218177318573L50.84310937499999,131.30827014786857L51.141093749999996,122.43609339850289L51.434296874999994,104.69173236404146L51.72215624999999,140.1804506650993L52.009453125,117.99999748808997L52.298296875000005,126.87218177318573L52.583625,95.8195480789457L52.872749999999996,122.43609339850289L53.15878124999999,113.56390911340714L53.44621875,157.9248116995607L53.73590624999999,126.87218177318573L54.028124999999996,126.87218177318573L54.31725,126.87218177318573L54.604265625,117.99999748808997L54.89128125,126.87218177318573L55.17787499999999,109.1278207387243L55.461937500000005,126.87218177318573L55.746562499999996,104.69173236404146L56.032734375,113.56390911340714L56.312437499999994,117.99999748808997L56.598046875,135.7443585225514L56.88534375,100.25563645362854L57.17221875,140.1804506650993L57.460499999999996,109.1278207387243L57.751734375,131.30827014786857L58.035515624999995,122.43609339850289L58.324921875,91.38345970426286L58.61896874999999,131.30827014786857L58.906265624999996,131.30827014786857L59.201015625,109.1278207387243L59.494359374999995,126.87218177318573L59.78334374999999,109.1278207387243L60.08090624999999,91.38345970426286L60.37157812499999,126.87218177318573L60.658874999999995,113.56390911340714L60.9474375,122.43609339850289L61.359046875,126.87218177318573L61.686703124999994,109.1278207387243L61.97498437499999,100.25563645362854L62.263687499999996,109.1278207387243L62.548593749999995,100.25563645362854L62.839265624999996,95.8195480789457L63.12121875,91.38345970426286L63.40978124999999,86.94737132958004L63.70087499999999,73.63909113407135L63.98971875,100.25563645362854L64.274765625,104.69173236404146L64.5654375,113.56390911340714L64.859765625,113.56390911340714L65.1515625,95.8195480789457L65.44012500000001,91.38345970426286L65.732625,100.25563645362854L66.02090625,86.94737132958004L66.31087500000001,91.38345970426286L66.59775,109.1278207387243L66.87464062499998,100.25563645362854L67.16334375,91.38345970426286L67.45218750000001,82.5112754191671L67.7385,104.69173236404146L68.024953125,82.5112754191671L68.31618749999998,73.63909113407135L68.6143125,100.25563645362854L68.89978124999999,82.5112754191671L69.19115624999999,91.38345970426286L69.47325,86.94737132958004L69.76251562499999,86.94737132958004L70.04685937500001,60.33082601002285L70.342453125,69.20300275938853L70.62890625,86.94737132958004L70.91549999999998,109.1278207387243L71.20195312499999,86.94737132958004L71.487421875,113.56390911340714L71.7795,109.1278207387243L72.069046875,91.38345970426286L72.358171875,117.99999748808997L72.64279687500002,86.94737132958004L72.93403125,78.07518704448428L73.22807812499998,113.56390911340714L73.51621875,100.25563645362854L73.80295312499999,91.38345970426286L74.093625,69.20300275938853L74.38542187499999,86.94737132958004L74.6814375,91.38345970426286L74.96845312499998,78.07518704448428L75.267,55.89473763534001L75.555140625,91.38345970426286L75.84215625,73.63909113407135L76.13296874999999,47.02256088597434L76.4735625,69.20300275938853L76.824703125,55.89473763534001L77.543015625,78.07518704448428L77.91046875,73.63909113407135L78.1970625,82.5112754191671L78.47718749999999,91.38345970426286L78.76631249999998,73.63909113407135L79.06415625000001,86.94737132958004L79.353,73.63909113407135L79.643390625,82.5112754191671L79.92801562499999,60.33082601002285L80.22248437500001,78.07518704448428L80.51596874999998,64.76691438470569L80.80776562499997,69.20300275938853L81.10448437499998,64.76691438470569L81.406265625,51.45864926065718L81.70228125000001,51.45864926065718L81.99745312499999,73.63909113407135L82.294734375,73.63909113407135L82.577671875,64.76691438470569L82.87115624999998,55.89473763534001L83.167453125,55.89473763534001L83.46389062499999,60.33082601002285L83.75343749999999,64.76691438470569L84.04649999999998,73.63909113407135L84.33646875000001,60.33082601002285L84.62840625000001,73.63909113407135L84.91809375,47.02256088597434L85.2193125,42.586472511291504L85.52334375,60.33082601002285L85.82343749999998,47.02256088597434L86.114953125,55.89473763534001L86.41096874999998,82.5112754191671L86.70628124999998,73.63909113407135L87.00215624999998,55.89473763534001L87.29367187499999,55.89473763534001L87.5975625,51.45864926065718L87.895828125,47.02256088597434L88.18706249999998,64.76691438470569L88.48575000000001,60.33082601002285L88.78471875000001,51.45864926065718L89.07300000000002,60.33082601002285L89.37042187499999,78.07518704448428L89.65771874999999,60.33082601002285L89.94360937500001,51.45864926065718L90.23428125,60.33082601002285L90.52298437500001,47.02256088597434L90.94710937500001,55.89473763534001L91.2718125,86.94737132958004L91.560796875,55.89473763534001L91.84893749999998,64.76691438470569L92.134546875,64.76691438470569L92.42943749999999,69.20300275938853L92.71771875,69.20300275938853L93.00571875,73.63909113407135L93.29582812499999,42.586472511291504L93.5848125,60.33082601002285L93.8829375,55.89473763534001L94.172484375,55.89473763534001L94.4595,47.02256088597434L94.75059375,55.89473763534001L95.04365625000001,60.33082601002285L95.334328125,47.02256088597434L95.62725,69.20300275938853L95.921578125,64.76691438470569L96.20943749999999,78.07518704448428L96.49771875,38.150369065148496L96.78768749999999,64.76691438470569L97.077515625,51.45864926065718L97.37451562499999,55.89473763534001L97.66265624999998,38.150369065148496L97.94939062499998,33.71428069046566L98.24132812499998,69.20300275938853L98.5303125,51.45864926065718L98.818171875,55.89473763534001L99.1096875,55.89473763534001L99.40767187499999,60.33082601002285L99.71015625,69.20300275938853L99.99745312499999,55.89473763534001L100.294171875,47.02256088597434L100.58540624999999,51.45864926065718L100.87087499999998,47.02256088597434L101.16435937499999,47.02256088597434L101.45010937499998,69.20300275938853L101.74837500000001,55.89473763534001L102.04593749999998,38.150369065148496L102.34434375,60.33082601002285L102.63712499999998,51.45864926065718L102.932296875,78.07518704448428L103.226765625,33.71428069046566L103.51743749999999,33.71428069046566L103.80557812499998,42.586472511291504L104.10018749999998,42.586472511291504L104.39535937500001,42.586472511291504L104.68982812499999,47.02256088597434L104.98049999999999,51.45864926065718L105.265125,60.33082601002285L105.55734375,60.33082601002285L105.85476562499998,64.76691438470569L106.151484375,64.76691438470569L106.44693749999998,64.76691438470569L106.74773437499998,47.02256088597434L107.045015625,51.45864926065718L107.33793750000001,55.89473763534001L107.63114062499999,51.45864926065718L107.92265624999999,38.150369065148496L108.21023437499998,60.33082601002285L108.50625,47.02256088597434L108.7959375,51.45864926065718L109.08520312499999,55.89473763534001L109.37235937499999,29.278192315782835L109.657125,24.842103941099996L109.946390625,33.71428069046566L110.23537499999999,42.586472511291504L110.52618749999999,38.150369065148496L110.82304687499999,20.406015566417153L111.11484374999999,47.02256088597434L111.41521875,60.33082601002285L111.70518750000001,38.150369065148496L111.99881249999999,51.45864926065718L112.28653125,42.586472511291504L112.57312499999999,42.586472511291504L112.87012499999999,42.586472511291504L113.15995312499997,24.842103941099996L113.4455625,33.71428069046566L113.738625,47.02256088597434L114.03056249999997,20.406015566417153L114.32699999999998,42.586472511291504L114.62385937499998,24.842103941099996L114.918046875,38.150369065148496L115.21040624999998,42.586472511291504L115.49967187499999,24.842103941099996L115.792875,38.150369065148496L116.08396875,42.586472511291504L116.385328125,24.842103941099996L116.68218749999998,51.45864926065718L116.98959375,33.71428069046566L117.297,24.842103941099996L117.59639062499998,42.586472511291504L117.90379687500001,51.45864926065718L118.20234375,47.02256088597434L118.50342187499999,38.150369065148496L118.811671875,33.71428069046566L119.10684375,20.406015566417153L119.40075,29.278192315782835L119.6955,20.406015566417153L120.12539062500001,51.45864926065718L120.439125,7.097750442368652L120.726,33.71428069046566L121.01723437499999,60.33082601002285L121.30874999999999,55.89473763534001L121.600828125,42.586472511291504L121.883765625,47.02256088597434L122.17331249999998,29.278192315782835L122.46089062499999,55.89473763534001L122.74340624999998,51.45864926065718L123.03675,64.76691438470569L123.327703125,42.586472511291504L123.625125,33.71428069046566L123.91607812499998,51.45864926065718L124.20239062499998,33.71428069046566L124.48996874999999,33.71428069046566L124.77276562499999,33.71428069046566L125.065265625,24.842103941099996L125.354953125,24.842103941099996L125.64759374999998,29.278192315782835L125.93559375,33.71428069046566L126.22626562499998,51.45864926065718L126.51131249999999,42.586472511291504L126.80142187499997,38.150369065148496L127.096453125,60.33082601002285L127.39275,55.89473763534001L127.68482812499998,60.33082601002285L127.974375,33.71428069046566L128.266875,47.02256088597434L128.55614062499998,29.278192315782835L128.84203125,42.586472511291504L129.129890625,60.33082601002285L129.428859375,38.150369065148496L129.719671875,33.71428069046566L130.01484374999998,55.89473763534001L130.30678124999997,20.406015566417153L130.609265625,20.406015566417153L130.90289062499997,15.969927191734314L131.195671875,20.406015566417153L131.487328125,24.842103941099996L131.7819375,29.278192315782835L132.073734375,42.586472511291504L132.36609375,42.586472511291504L132.65324999999999,24.842103941099996L132.942796875,47.02256088597434L133.2354375,29.278192315782835L133.531171875,15.969927191734314L133.82310937499997,33.71428069046566L134.11054687499998,51.45864926065718L134.400234375,29.278192315782835L134.6889375,7.097750442368652L134.978203125,42.586472511291504L135.26915624999998,11.533838817051492L135.558703125,24.842103941099996L135.847265625,33.71428069046566L136.140890625,29.278192315782835L136.43156249999998,24.842103941099996L136.717453125,38.150369065148496L137.01079687499998,38.150369065148496L137.300203125,24.842103941099996L137.584125,29.278192315782835L137.8670625,51.45864926065718L138.1550625,20.406015566417153L138.44728124999997,47.02256088597434L138.73907812499996,33.71428069046566L139.03129687499998,42.586472511291504L139.3205625,38.150369065148496L139.61024999999998,20.406015566417153L139.90598437499997,33.71428069046566L140.196234375,47.02256088597434L140.494359375,29.278192315782835L140.78671874999998,38.150369065148496L141.075703125,33.71428069046566L141.36890624999998,29.278192315782835L141.66309374999997,29.278192315782835L141.953765625,38.150369065148496L142.23937499999997,29.278192315782835L142.533140625,42.586472511291504L142.82507812499998,33.71428069046566L143.11096874999998,24.842103941099996L143.40346875,47.02256088597434L143.6990625,42.586472511291504L143.99409375,29.278192315782835L144.28771875,42.586472511291504L144.58781249999998,33.71428069046566L144.87975,24.842103941099996L145.171546875,42.586472511291504L145.464890625,29.278192315782835L145.7589375,33.71428069046566L146.05115625,42.586472511291504L146.34351562499998,20.406015566417153L146.640375,33.71428069046566L146.93625,42.586472511291504L147.234796875,2.661646996225646L147.5251875,33.71428069046566L147.81740624999998,38.150369065148496L148.11440624999997,33.71428069046566L148.4060625,33.71428069046566L148.698140625,24.842103941099996L148.997953125,7.097750442368652L149.448234375,20.406015566417153L149.741015625,24.842103941099996L150.03098437499997,33.71428069046566L150.322359375,29.278192315782835L150.619078125,38.150369065148496L150.91115625,20.406015566417153L151.20928124999998,20.406015566417153L151.49953125,11.533838817051492L151.781765625,20.406015566417153L152.07384374999998,20.406015566417153L152.36845312499997,42.586472511291504L152.66249999999997,38.150369065148496L152.95584374999999,38.150369065148496L153.24468749999997,38.150369065148496L153.53324999999998,38.150369065148496L153.82265625,20.406015566417153L154.111921875,20.406015566417153L154.40414062499997,33.71428069046566L154.69171874999998,24.842103941099996L154.98435937499997,24.842103941099996L155.2764375,33.71428069046566L155.57470312499998,24.842103941099996L155.86748437499998,42.586472511291504L156.1635,33.71428069046566L156.45220312499998,11.533838817051492L156.7445625,15.969927191734314L157.04746874999998,24.842103941099996L157.33940624999997,20.406015566417153L157.62740624999998,15.969927191734314L157.919765625,15.969927191734314L158.20889062499995,33.71428069046566L158.5040625,38.150369065148496L158.798109375,24.842103941099996L159.08849999999998,24.842103941099996L159.38043749999997,33.71428069046566L159.67223437499996,29.278192315782835L159.96515624999998,20.406015566417153L160.25512499999996,20.406015566417153L160.55212499999996,20.406015566417153L160.8508125,51.45864926065718L161.13993749999997,20.406015566417153L161.44396874999998,33.71428069046566L161.73801562499997,38.150369065148496L162.03206249999997,20.406015566417153L162.325828125,20.406015566417153L162.61467187499997,11.533838817051492L162.90942187499996,29.278192315782835L163.20290624999998,29.278192315782835L163.49231249999997,15.969927191734314L163.78579687499996,20.406015566417153L164.07590625,24.842103941099996L164.3664375,24.842103941099996L164.66020312499998,29.278192315782835L164.951296875,20.406015566417153L165.2461875,15.969927191734314L165.53812499999998,38.150369065148496L165.84046874999996,33.71428069046566L166.13184374999994,20.406015566417153L166.423640625,33.71428069046566L166.71037499999997,20.406015566417153L166.99612499999998,24.842103941099996L167.28665624999996,11.533838817051492L167.58084374999999,20.406015566417153L167.8708125,29.278192315782835L168.166265625,33.71428069046566L168.46171874999996,38.150369065148496L168.75815624999996,29.278192315782835L169.04953124999997,33.71428069046566L169.3445625,29.278192315782835L169.62946874999997,29.278192315782835L169.92281249999996,15.969927191734314L170.21390624999998,24.842103941099996L170.49993749999996,42.586472511291504L170.789484375,20.406015566417153L171.07720312499998,15.969927191734314L171.36843749999997,20.406015566417153L171.664171875,20.406015566417153L171.95371874999998,15.969927191734314L172.244109375,15.969927191734314L172.53464062499998,24.842103941099996L172.84359375,42.586472511291504L173.14537499999997,20.406015566417153L173.43717187499996,24.842103941099996L173.72657812499997,15.969927191734314L174.02554687499997,24.842103941099996L174.32339062499997,20.406015566417153L174.62826562499998,29.278192315782835L174.92540624999998,20.406015566417153L175.21762499999997,29.278192315782835L175.52024999999998,42.586472511291504L175.81275,15.969927191734314L176.11199999999997,38.150369065148496L176.40379687499998,29.278192315782835L176.69685937499997,24.842103941099996L176.984015625,42.586472511291504L177.27693749999997,15.969927191734314L177.57590624999997,33.71428069046566L177.872484375,24.842103941099996L178.28746875,11.533838817051492L178.6235625,38.150369065148496L178.920703125,47.02256088597434L179.213203125,29.278192315782835L179.50710937499997,15.969927191734314L179.79989062499996,29.278192315782835L180.09126562499998,15.969927191734314L180.38474999999997,42.586472511291504L180.67317187499998,24.842103941099996L180.96159374999996,15.969927191734314L181.25507812499998,29.278192315782835L181.54982812499995,33.71428069046566L181.8478125,24.842103941099996L182.14157812499997,20.406015566417153L182.43112499999998,24.842103941099996L182.726859375,29.278192315782835L183.018234375,24.842103941099996L183.31171875,2.661646996225646L183.60970312499998,24.842103941099996L183.90009374999997,11.533838817051492L184.1979375,2.661646996225646L184.49226562499996,11.533838817051492L184.78504687499998,20.406015566417153L185.07740625,29.278192315782835L185.37370312499996,24.842103941099996L185.66395312499998,15.969927191734314L185.958,29.278192315782835L186.25612499999997,7.097750442368652L186.54721874999996,24.842103941099996L186.842109375,15.969927191734314L187.1375625,24.842103941099996L187.42865625,11.533838817051492L187.72143749999998,2.661646996225646L188.01857812499998,24.842103941099996L188.31107812499997,15.969927191734314L188.59795312499998,33.71428069046566L188.891296875,29.278192315782835L189.186046875,33.71428069046566L189.47249999999997,29.278192315782835L189.76640624999996,-6.210529753140035L190.05932812499998,51.45864926065718L190.35028124999997,29.278192315782835L190.6464375,29.278192315782835L190.943859375,47.02256088597434L191.24803124999997,47.02256088597434L191.54390624999996,11.533838817051492L191.83556249999995,29.278192315782835L192.12848437499997,38.150369065148496L192.421828125,33.71428069046566L192.71742187499999,38.150369065148496L193.00879687499997,38.150369065148496L193.29567187499995,47.02256088597434L193.584796875,42.586472511291504L193.87153124999998,51.45864926065718L194.15615625,47.02256088597434L194.441484375,51.45864926065718L194.73454687499998,33.71428069046566L195.02634375,33.71428069046566L195.322359375,15.969927191734314L195.61753124999998,29.278192315782835L195.91171874999995,15.969927191734314L196.20253125,15.969927191734314L196.49981249999996,38.150369065148496L196.79231249999998,33.71428069046566L197.08509375,24.842103941099996L197.37787499999996,29.278192315782835L197.66671874999997,11.533838817051492L197.95739062499996,33.71428069046566L198.25424999999998,20.406015566417153L198.5473125,15.969927191734314L198.84009375,15.969927191734314L199.134703125,2.661646996225646L199.44182812499997,15.969927191734314L199.738125,47.02256088597434L200.03709375,20.406015566417153L200.33339062499996,38.150369065148496L200.63432812499997,38.150369065148496L200.93962499999998,7.097750442368652L201.23395312499997,7.097750442368652L201.53053124999997,15.969927191734314L201.82668749999996,15.969927191734314L202.11862499999995,15.969927191734314L202.41871874999998,24.842103941099996L202.71543749999995,2.661646996225646L203.00892187499997,29.278192315782835L203.31210937499998,29.278192315782835L203.61403124999998,38.150369065148496L203.92298437499997,47.02256088597434L204.21309374999998,15.969927191734314L204.50882812499995,11.533838817051492L204.801609375,24.842103941099996L205.09593749999996,20.406015566417153L205.38576562499998,11.533838817051492L205.68121874999997,38.150369065148496L205.9723125,20.406015566417153L206.26270312499997,33.71428069046566L206.55562499999996,33.71428069046566L206.85290625,20.406015566417153L207.26676562499998,2.661646996225646L207.61298437499997,29.278192315782835L207.91195312499997,20.406015566417153L208.212046875,24.842103941099996L208.51509374999998,15.969927191734314L208.808578125,7.097750442368652L209.09868749999998,11.533838817051492L209.39217187499997,38.150369065148496L209.68762499999997,15.969927191734314L209.98153125,11.533838817051492L210.27304687499995,29.278192315782835L210.56484374999997,11.533838817051492L210.85664062499995,7.097750442368652L211.144078125,15.969927191734314L211.44079687499996,24.842103941099996L211.73189062499998,24.842103941099996L212.03099999999998,2.661646996225646L212.321671875,33.71428069046566L212.61192187499998,29.278192315782835L212.909765625,33.71428069046566L213.19973437499996,11.533838817051492L213.49012499999995,24.842103941099996L213.78121875,2.661646996225646L214.07610937499996,20.406015566417153L214.36776562499998,33.71428069046566L214.66096874999997,29.278192315782835L214.95515625,29.278192315782835L215.24807812499998,2.661646996225646L215.54465624999995,29.278192315782835L215.83926562499997,15.969927191734314L216.13092187499998,15.969927191734314L216.42117187499997,24.842103941099996L216.71395312499996,7.097750442368652L217.00715624999998,24.842103941099996L217.30317187499998,7.097750442368652L217.591171875,15.969927191734314L217.894078125,20.406015566417153L218.18939062499996,20.406015566417153L218.488921875,20.406015566417153L218.786765625,7.097750442368652L219.08545312499996,24.842103941099996L219.38034374999998,20.406015566417153L219.66834374999996,20.406015566417153L219.95395312499997,33.71428069046566L220.25137499999997,20.406015566417153L220.548234375,11.533838817051492L220.850015625,20.406015566417153L221.15362499999998,24.842103941099996L221.45146874999998,11.533838817051492L221.75479687499998,24.842103941099996L222.05320312499998,47.02256088597434L222.34471875,15.969927191734314L222.642703125,11.533838817051492L222.93914062499996,20.406015566417153L223.24064062499997,24.842103941099996L223.52807812499998,7.097750442368652L223.82170312499997,29.278192315782835L224.10914062499998,15.969927191734314L224.40206249999997,15.969927191734314L224.70314062499997,20.406015566417153L224.99859375,2.661646996225646L225.29503124999997,11.533838817051492L225.58851562499996,42.586472511291504L225.88368749999998,15.969927191734314L226.178296875,29.278192315782835L226.469671875,15.969927191734314L226.76990625,7.097750442368652L227.06409374999998,29.278192315782835L227.35884374999995,7.097750442368652L227.65710937499998,20.406015566417153L227.954390625,11.533838817051492L228.25617187499998,29.278192315782835L228.55260937499995,47.02256088597434L228.849609375,60.33082601002285L229.15068749999998,60.33082601002285L229.445578125,20.406015566417153L229.73118749999998,60.33082601002285L230.021859375,33.71428069046566L230.31267187499998,64.76691438470569L230.60362499999997,20.406015566417153L230.89865624999996,29.278192315782835L231.19031249999998,33.71428069046566L231.48028125,29.278192315782835L231.77221875,29.278192315782835L232.05754687499996,33.71428069046566L232.346671875,15.969927191734314L232.64873437499998,20.406015566417153L232.94418749999997,11.533838817051492L233.24048437499997,33.71428069046566L233.54479687499995,24.842103941099996L233.83673437499996,29.278192315782835L234.134859375,29.278192315782835L234.43326562499996,11.533838817051492L234.72745312499998,7.097750442368652L235.02332812499998,7.097750442368652L235.31146874999996,2.661646996225646L235.59946874999997,15.969927191734314L235.89421875,29.278192315782835L236.295140625,7.097750442368652L236.65598437499997,24.842103941099996L236.95720312499998,20.406015566417153L237.25574999999998,11.533838817051492L237.55246874999997,29.278192315782835L237.85143749999995,20.406015566417153L238.13957812499999,24.842103941099996L238.43348437499998,20.406015566417153L238.72598437499997,20.406015566417153L239.02607812499997,33.71428069046566L239.33067187499998,29.278192315782835L239.62598437499997,20.406015566417153L239.91454687499996,20.406015566417153L240.21112499999995,47.02256088597434L240.497296875,42.586472511291504L240.79246874999998,42.586472511291504L241.0891875,29.278192315782835L241.37746874999996,24.842103941099996L241.67615625,42.586472511291504L241.96598437499998,7.097750442368652L242.26073437499997,42.586472511291504L242.56293749999998,29.278192315782835L242.85951562499997,29.278192315782835L243.15454687499997,15.969927191734314L243.44789062499999,29.278192315782835L243.74517187499995,2.661646996225646L244.03260937499996,24.842103941099996L244.32201562499998,20.406015566417153L244.61142187499993,38.150369065148496L244.90687499999999,20.406015566417153L245.2066875,15.969927191734314L245.49679687499997,15.969927191734314L245.79224999999997,42.586472511291504L246.08798437499996,29.278192315782835L246.37584374999997,33.71428069046566L246.67017187499997,20.406015566417153L246.96112499999998,11.533838817051492L247.25939062499998,20.406015566417153L247.55048437499997,24.842103941099996L247.83876562499998,15.969927191734314L248.131828125,11.533838817051492L248.41757812499995,20.406015566417153L248.71274999999994,24.842103941099996L249.00539062499996,33.71428069046566L249.29789062499998,24.842103941099996L249.59840624999995,29.278192315782835L249.89737499999998,33.71428069046566L250.18903124999994,7.097750442368652L250.49024999999997,24.842103941099996L250.78457812499997,20.406015566417153L251.079046875,24.842103941099996L251.3716875,7.097750442368652L251.66390624999994,15.969927191734314L251.96062499999996,20.406015566417153L252.25171874999998,11.533838817051492L252.53887499999996,7.097750442368652L252.824625,20.406015566417153L253.10446875,15.969927191734314L253.393875,38.150369065148496L253.68553125,29.278192315782835L253.97409374999998,20.406015566417153L254.26195312500002,15.969927191734314L254.552203125,29.278192315782835L254.84132812499996,20.406015566417153L255.11821874999998,7.097750442368652L255.41184375,15.969927191734314L255.70504687499997,7.097750442368652L255.9931875,7.097750442368652L256.276546875,15.969927191734314L256.559203125,7.097750442368652L256.8538125,20.406015566417153L257.144765625,7.097750442368652L257.43290625,7.097750442368652L257.72371875,29.278192315782835L258.024796875,15.969927191734314L258.32109375,2.661646996225646L258.619359375,24.842103941099996" style="fill: none;" fill="none"></path></g></g></g></g></g></g><g transform="translate(51, 177)" clip-path="url(#clip_1)"><clipPath id="clip_1"><rect width="278" height="23"></rect></clipPath><g><g><line x1="0" y1="0" x2="0" y2="5" style="visibility: inherit;" fill="rgb(0, 0, 0)" stroke="rgb(204, 204, 204)" stroke-width="1px"></line><line x1="25.3125" y1="0" x2="25.3125" y2="5" style="visibility: inherit;" fill="rgb(0, 0, 0)" stroke="rgb(204, 204, 204)" stroke-width="1px"></line><line x1="50.625" y1="0" x2="50.625" y2="5" style="visibility: inherit;" fill="rgb(0, 0, 0)" stroke="rgb(204, 204, 204)" stroke-width="1px"></line><line x1="75.93750000000001" y1="0" x2="75.93750000000001" y2="5" style="visibility: inherit;" fill="rgb(0, 0, 0)" stroke="rgb(204, 204, 204)" stroke-width="1px"></line><line x1="101.25" y1="0" x2="101.25" y2="5" style="visibility: inherit;" fill="rgb(0, 0, 0)" stroke="rgb(204, 204, 204)" stroke-width="1px"></line><line x1="126.5625" y1="0" x2="126.5625" y2="5" style="visibility: inherit;" fill="rgb(0, 0, 0)" stroke="rgb(204, 204, 204)" stroke-width="1px"></line><line x1="151.875" y1="0" x2="151.875" y2="5" style="visibility: inherit;" fill="rgb(0, 0, 0)" stroke="rgb(204, 204, 204)" stroke-width="1px"></line><line x1="177.18749999999997" y1="0" x2="177.18749999999997" y2="5" style="visibility: inherit;" fill="rgb(0, 0, 0)" stroke="rgb(204, 204, 204)" stroke-width="1px"></line><line x1="202.49999999999997" y1="0" x2="202.49999999999997" y2="5" style="visibility: inherit;" fill="rgb(0, 0, 0)" stroke="rgb(204, 204, 204)" stroke-width="1px"></line><line x1="227.81249999999997" y1="0" x2="227.81249999999997" y2="5" style="visibility: inherit;" fill="rgb(0, 0, 0)" stroke="rgb(204, 204, 204)" stroke-width="1px"></line><line x1="253.125" y1="0" x2="253.125" y2="5" style="visibility: inherit;" fill="rgb(0, 0, 0)" stroke="rgb(204, 204, 204)" stroke-width="1px"></line><line x1="278.4375" y1="0" x2="278.4375" y2="5" style="visibility: inherit;" fill="rgb(0, 0, 0)" stroke="rgb(204, 204, 204)" stroke-width="1px"></line></g><g transform="translate(0, 8)"><text x="0" y="0" dx="0em" dy="0.95em" style="text-anchor: middle; visibility: hidden; font-family: Roboto, sans-serif; font-size: 12px; font-weight: 200;" fill="rgb(33, 33, 33)" stroke="none" stroke-width="1px">-0.05</text><text x="25.3125" y="0" dx="0em" dy="0.95em" style="text-anchor: middle; visibility: inherit; font-family: Roboto, sans-serif; font-size: 12px; font-weight: 200;" fill="rgb(33, 33, 33)" stroke="none" stroke-width="1px">0</text><text x="50.625" y="0" dx="0em" dy="0.95em" style="text-anchor: middle; visibility: inherit; font-family: Roboto, sans-serif; font-size: 12px; font-weight: 200;" fill="rgb(33, 33, 33)" stroke="none" stroke-width="1px">0.05</text><text x="75.93750000000001" y="0" dx="0em" dy="0.95em" style="text-anchor: middle; visibility: inherit; font-family: Roboto, sans-serif; font-size: 12px; font-weight: 200;" fill="rgb(33, 33, 33)" stroke="none" stroke-width="1px">0.1</text><text x="101.25" y="0" dx="0em" dy="0.95em" style="text-anchor: middle; visibility: inherit; font-family: Roboto, sans-serif; font-size: 12px; font-weight: 200;" fill="rgb(33, 33, 33)" stroke="none" stroke-width="1px">0.15</text><text x="126.5625" y="0" dx="0em" dy="0.95em" style="text-anchor: middle; visibility: inherit; font-family: Roboto, sans-serif; font-size: 12px; font-weight: 200;" fill="rgb(33, 33, 33)" stroke="none" stroke-width="1px">0.2</text><text x="151.875" y="0" dx="0em" dy="0.95em" style="text-anchor: middle; visibility: inherit; font-family: Roboto, sans-serif; font-size: 12px; font-weight: 200;" fill="rgb(33, 33, 33)" stroke="none" stroke-width="1px">0.25</text><text x="177.18749999999997" y="0" dx="0em" dy="0.95em" style="text-anchor: middle; visibility: inherit; font-family: Roboto, sans-serif; font-size: 12px; font-weight: 200;" fill="rgb(33, 33, 33)" stroke="none" stroke-width="1px">0.3</text><text x="202.49999999999997" y="0" dx="0em" dy="0.95em" style="text-anchor: middle; visibility: inherit; font-family: Roboto, sans-serif; font-size: 12px; font-weight: 200;" fill="rgb(33, 33, 33)" stroke="none" stroke-width="1px">0.35</text><text x="227.81249999999997" y="0" dx="0em" dy="0.95em" style="text-anchor: middle; visibility: inherit; font-family: Roboto, sans-serif; font-size: 12px; font-weight: 200;" fill="rgb(33, 33, 33)" stroke="none" stroke-width="1px">0.4</text><text x="253.125" y="0" dx="0em" dy="0.95em" style="text-anchor: middle; visibility: inherit; font-family: Roboto, sans-serif; font-size: 12px; font-weight: 200;" fill="rgb(33, 33, 33)" stroke="none" stroke-width="1px">0.45</text><text x="278.4375" y="0" dx="0em" dy="0.95em" style="text-anchor: middle; visibility: hidden; font-family: Roboto, sans-serif; font-size: 12px; font-weight: 200;" fill="rgb(33, 33, 33)" stroke="none" stroke-width="1px">0.5</text></g><line x1="0" y1="0" x2="278.4375" y2="0" fill="rgb(0, 0, 0)" stroke="rgb(204, 204, 204)" stroke-width="1px"></line></g></g></g></g></svg>