<svg viewBox="0 0 330 200" xmlns="http://www.w3.org/2000/svg"><g><g><g><g><g><line x1="41.171875" y1="177" x2="36.171875" y2="177" style="visibility: inherit;" fill="rgb(0, 0, 0)" stroke="rgb(204, 204, 204)" stroke-width="1px"></line><line x1="41.171875" y1="159.3" x2="36.171875" y2="159.3" style="visibility: inherit;" fill="rgb(0, 0, 0)" stroke="rgb(204, 204, 204)" stroke-width="1px"></line><line x1="41.171875" y1="141.6" x2="36.171875" y2="141.6" style="visibility: inherit;" fill="rgb(0, 0, 0)" stroke="rgb(204, 204, 204)" stroke-width="1px"></line><line x1="41.171875" y1="123.89999999999999" x2="36.171875" y2="123.89999999999999" style="visibility: inherit;" fill="rgb(0, 0, 0)" stroke="rgb(204, 204, 204)" stroke-width="1px"></line><line x1="41.171875" y1="106.20000000000002" x2="36.171875" y2="106.20000000000002" style="visibility: inherit;" fill="rgb(0, 0, 0)" stroke="rgb(204, 204, 204)" stroke-width="1px"></line><line x1="41.171875" y1="88.5" x2="36.171875" y2="88.5" style="visibility: inherit;" fill="rgb(0, 0, 0)" stroke="rgb(204, 204, 204)" stroke-width="1px"></line><line x1="41.171875" y1="70.79999999999998" x2="36.171875" y2="70.79999999999998" style="visibility: inherit;" fill="rgb(0, 0, 0)" stroke="rgb(204, 204, 204)" stroke-width="1px"></line><line x1="41.171875" y1="53.10000000000001" x2="36.171875" y2="53.10000000000001" style="visibility: inherit;" fill="rgb(0, 0, 0)" stroke="rgb(204, 204, 204)" stroke-width="1px"></line><line x1="41.171875" y1="35.39999999999999" x2="36.171875" y2="35.39999999999999" style="visibility: inherit;" fill="rgb(0, 0, 0)" stroke="rgb(204, 204, 204)" stroke-width="1px"></line><line x1="41.171875" y1="17.699999999999978" x2="36.171875" y2="17.699999999999978" style="visibility: inherit;" fill="rgb(0, 0, 0)" stroke="rgb(204, 204, 204)" stroke-width="1px"></line><line x1="41.171875" y1="0" x2="36.171875" y2="0" style="visibility: inherit;" fill="rgb(0, 0, 0)" stroke="rgb(204, 204, 204)" stroke-width="1px"></line></g><g transform="translate(31.171875, 0)"><text x="0" y="177" dx="0em" dy="0.3em" style="text-anchor: end; visibility: hidden; font-family: Roboto, sans-serif; font-size: 12px; font-weight: 200;" fill="rgb(33, 33, 33)" stroke="none" stroke-width="1px">0.4</text><text x="0" y="159.3" dx="0em" dy="0.3em" style="text-anchor: end; visibility: inherit; font-family: Roboto, sans-serif; font-size: 12px; font-weight: 200;" fill="rgb(33, 33, 33)" stroke="none" stroke-width="1px">0.6</text><text x="0" y="141.6" dx="0em" dy="0.3em" style="text-anchor: end; visibility: hidden; font-family: Roboto, sans-serif; font-size: 12px; font-weight: 200;" fill="rgb(33, 33, 33)" stroke="none" stroke-width="1px">0.8</text><text x="0" y="123.89999999999999" dx="0em" dy="0.3em" style="text-anchor: end; visibility: inherit; font-family: Roboto, sans-serif; font-size: 12px; font-weight: 200;" fill="rgb(33, 33, 33)" stroke="none" stroke-width="1px">1</text><text x="0" y="106.20000000000002" dx="0em" dy="0.3em" style="text-anchor: end; visibility: hidden; font-family: Roboto, sans-serif; font-size: 12px; font-weight: 200;" fill="rgb(33, 33, 33)" stroke="none" stroke-width="1px">1.2</text><text x="0" y="88.5" dx="0em" dy="0.3em" style="text-anchor: end; visibility: inherit; font-family: Roboto, sans-serif; font-size: 12px; font-weight: 200;" fill="rgb(33, 33, 33)" stroke="none" stroke-width="1px">1.4</text><text x="0" y="70.79999999999998" dx="0em" dy="0.3em" style="text-anchor: end; visibility: hidden; font-family: Roboto, sans-serif; font-size: 12px; font-weight: 200;" fill="rgb(33, 33, 33)" stroke="none" stroke-width="1px">1.6</text><text x="0" y="53.10000000000001" dx="0em" dy="0.3em" style="text-anchor: end; visibility: inherit; font-family: Roboto, sans-serif; font-size: 12px; font-weight: 200;" fill="rgb(33, 33, 33)" stroke="none" stroke-width="1px">1.8</text><text x="0" y="35.39999999999999" dx="0em" dy="0.3em" style="text-anchor: end; visibility: hidden; font-family: Roboto, sans-serif; font-size: 12px; font-weight: 200;" fill="rgb(33, 33, 33)" stroke="none" stroke-width="1px">2</text><text x="0" y="17.699999999999978" dx="0em" dy="0.3em" style="text-anchor: end; visibility: inherit; font-family: Roboto, sans-serif; font-size: 12px; font-weight: 200;" fill="rgb(33, 33, 33)" stroke="none" stroke-width="1px">2.2</text><text x="0" y="0" dx="0em" dy="0.3em" style="text-anchor: end; visibility: hidden; font-family: Roboto, sans-serif; font-size: 12px; font-weight: 200;" fill="rgb(33, 33, 33)" stroke="none" stroke-width="1px">2.4</text></g><line x1="41.171875" y1="0" x2="41.171875" y2="177" fill="rgb(0, 0, 0)" stroke="rgb(204, 204, 204)" stroke-width="1px"></line></g></g><g transform="translate(41, 0)" clip-path="url(#clip_0)"><clipPath id="clip_0"><rect width="288" height="177"></rect></clipPath><g><g><g><line x1="0" y1="0" x2="0" y2="177" fill="rgb(0, 0, 0)" stroke="rgb(66, 66, 66)" stroke-width="1px" opacity="0.25"></line><line x1="26.257102272727273" y1="0" x2="26.257102272727273" y2="177" fill="rgb(0, 0, 0)" stroke="rgb(66, 66, 66)" stroke-width="1px" opacity="0.25"></line><line x1="52.51420454545455" y1="0" x2="52.51420454545455" y2="177" fill="rgb(0, 0, 0)" stroke="rgb(66, 66, 66)" stroke-width="1px" opacity="0.25"></line><line x1="78.77130681818183" y1="0" x2="78.77130681818183" y2="177" fill="rgb(0, 0, 0)" stroke="rgb(66, 66, 66)" stroke-width="1px" opacity="0.25"></line><line x1="105.0284090909091" y1="0" x2="105.0284090909091" y2="177" fill="rgb(0, 0, 0)" stroke="rgb(66, 66, 66)" stroke-width="1px" opacity="0.25"></line><line x1="131.28551136363635" y1="0" x2="131.28551136363635" y2="177" fill="rgb(0, 0, 0)" stroke="rgb(66, 66, 66)" stroke-width="1px" opacity="0.25"></line><line x1="157.54261363636363" y1="0" x2="157.54261363636363" y2="177" fill="rgb(0, 0, 0)" stroke="rgb(66, 66, 66)" stroke-width="1px" opacity="0.25"></line><line x1="183.79971590909088" y1="0" x2="183.79971590909088" y2="177" fill="rgb(0, 0, 0)" stroke="rgb(66, 66, 66)" stroke-width="1px" opacity="0.25"></line><line x1="210.05681818181816" y1="0" x2="210.05681818181816" y2="177" fill="rgb(0, 0, 0)" stroke="rgb(66, 66, 66)" stroke-width="1px" opacity="0.25"></line><line x1="236.31392045454544" y1="0" x2="236.31392045454544" y2="177" fill="rgb(0, 0, 0)" stroke="rgb(66, 66, 66)" stroke-width="1px" opacity="0.25"></line><line x1="262.5710227272727" y1="0" x2="262.5710227272727" y2="177" fill="rgb(0, 0, 0)" stroke="rgb(66, 66, 66)" stroke-width="1px" opacity="0.25"></line><line x1="288.828125" y1="0" x2="288.828125" y2="177" fill="rgb(0, 0, 0)" stroke="rgb(66, 66, 66)" stroke-width="1px" opacity="0.25"></line></g><g><line x1="0" y1="177" x2="288.828125" y2="177" fill="rgb(0, 0, 0)" stroke="rgb(66, 66, 66)" stroke-width="1px" opacity="0.25"></line><line x1="0" y1="159.3" x2="288.828125" y2="159.3" fill="rgb(0, 0, 0)" stroke="rgb(66, 66, 66)" stroke-width="1px" opacity="0.25"></line><line x1="0" y1="141.6" x2="288.828125" y2="141.6" fill="rgb(0, 0, 0)" stroke="rgb(66, 66, 66)" stroke-width="1px" opacity="0.25"></line><line x1="0" y1="123.89999999999999" x2="288.828125" y2="123.89999999999999" fill="rgb(0, 0, 0)" stroke="rgb(66, 66, 66)" stroke-width="1px" opacity="0.25"></line><line x1="0" y1="106.20000000000002" x2="288.828125" y2="106.20000000000002" fill="rgb(0, 0, 0)" stroke="rgb(66, 66, 66)" stroke-width="1px" opacity="0.25"></line><line x1="0" y1="88.5" x2="288.828125" y2="88.5" fill="rgb(0, 0, 0)" stroke="rgb(66, 66, 66)" stroke-width="1px" opacity="0.25"></line><line x1="0" y1="70.79999999999998" x2="288.828125" y2="70.79999999999998" fill="rgb(0, 0, 0)" stroke="rgb(66, 66, 66)" stroke-width="1px" opacity="0.25"></line><line x1="0" y1="53.10000000000001" x2="288.828125" y2="53.10000000000001" fill="rgb(0, 0, 0)" stroke="rgb(66, 66, 66)" stroke-width="1px" opacity="0.25"></line><line x1="0" y1="35.39999999999999" x2="288.828125" y2="35.39999999999999" fill="rgb(0, 0, 0)" stroke="rgb(66, 66, 66)" stroke-width="1px" opacity="0.25"></line><line x1="0" y1="17.699999999999978" x2="288.828125" y2="17.699999999999978" fill="rgb(0, 0, 0)" stroke="rgb(66, 66, 66)" stroke-width="1px" opacity="0.25"></line><line x1="0" y1="0" x2="288.828125" y2="0" fill="rgb(0, 0, 0)" stroke="rgb(66, 66, 66)" stroke-width="1px" opacity="0.25"></line></g></g></g><g><g><line x1="0" y1="212.4" x2="288.828125" y2="212.4" fill="rgb(0, 0, 0)" stroke="rgb(153, 153, 153)" stroke-width="1.5px"></line></g></g><g><g><line x1="26.257102272727273" y1="0" x2="26.257102272727273" y2="177" fill="rgb(0, 0, 0)" stroke="rgb(153, 153, 153)" stroke-width="1.5px"></line></g></g><g><g><g><g><g><path stroke="rgb(255, 112, 67)" stroke-width="2px" d="M26.257102272727273,28.366701149940482L26.555849747474745,28.494550947000658L26.84555310921717,28.5965692071333L27.14736391256313,28.759567917033245L27.443485677083334,28.91951205341056L27.7420872790404,29.105714067057814L28.03762555239899,29.309969972226185L28.328495896464645,29.590964556995164L28.62986908143939,30.075383183376246L28.926428464330808,30.565316343539468L29.223133720012626,31.40214930815445L29.524652777777774,32.10046850301497L29.82237914299242,32.97247690322891L30.112957741477274,33.54449063384469L30.407766650883836,33.32007970239794L30.703450797032826,33.30941003438855L31.004094618055557,33.66063946026415L31.30298796559343,33.953455437791135L31.606111624053028,34.367712768873396L31.902671006944445,34.517417239778986L32.20141848169192,34.32500289509198L32.5148991082702,34.846880618106724L32.97264792455808,34.45771574007739L33.27124952651515,34.647618318728455L33.5726227114899,34.70663721011137L33.87093256786616,34.65887100519083L34.16661671401515,35.245451371216014L34.457487058080815,35.13816372283413L34.76177769886363,35.04067721332554L35.06417199337121,35.75651828217342L35.36627454229798,35.56271528876821L35.667793600063135,35.06929617730735L35.97135487689393,35.428839663631905L36.28031344696969,35.972479429932605L36.5765810842803,35.71775114613772L36.87547443181818,35.583194540852716L37.170720959595954,36.09765598044562L37.472677635732325,37.0646588696091L37.77886462279041,37.30108778577873L38.083155263573225,38.11175322166991L38.38321559343434,38.366183146344746L38.68604750631313,38.89004303444081L38.984357362689394,39.824478842098806L39.28952324021465,40.84195843825117L39.58900007891414,42.21934685136317L39.888622790404035,42.904217770258185L40.19043359375,42.15803223712045L40.49049392361111,43.966542092709915L40.79157536300505,43.40612760295678L41.09367791193182,43.25109194418949L41.39198776830808,43.24516074230637L41.689276515151505,43.88960350284572L41.98729462594697,44.61176730803832L42.29318986742424,46.224392367970154L42.59748050820707,45.98387015494862L42.89987480271464,47.21831603341615L43.195850694444445,47.544041061673084L43.49095134943182,47.04153724027966L43.789552951388885,47.28205112994771L44.0862582070707,49.12388909974492L44.38879837436869,48.787242619408524L44.68739997632576,49.13879543305205L44.98643919665403,49.95737128306759L45.28562428977273,51.76231682934736L45.58335065498737,51.33887219675234L45.87480449021464,51.68596148870442L46.16669594381313,52.692054510983596L46.462380089962124,53.653561634222854L46.76404502051767,53.16671176201351L47.05579060132575,54.161058205649034L47.35337109375,54.369265233737636L47.649055239898985,54.28882555468233L47.94794858743686,54.008171769867616L48.252093355429295,53.88655634164877L48.55011146622474,53.86532345975909L48.853089251893934,55.81525479044933L49.14585594223485,56.678560296344756L49.44606214488636,56.208476744458L49.74437200126262,57.5599122511599L50.04691216856061,58.44769029832335L50.34872297190656,59.90820752095773L50.64090617108586,59.3448801378631L50.93892428188131,58.58833530433064L51.246569996843434,58.253846931544196L51.542691761363635,58.427233397311355L51.84027225378788,59.85334372605714L52.140478456439396,58.74500862792448L52.44083053188131,58.69644073322179L52.7403073705808,60.80231922419403L53.04955768623737,60.490720899061834L53.35341070864899,62.559016786215736L53.65230405618686,61.366459586107965L53.950322166982325,61.4857666739501L54.24979900568182,61.52060036379272L54.54592077020202,64.4368526675446L54.84583522727272,64.71534936270093L55.14254048295454,63.195085324735565L55.4407044665404,62.58027610221612L55.74120241477272,63.075255310759985L56.04432607323231,63.493018568338826L56.34424053030303,61.71980400168497L56.64182102272728,63.63241100547145L56.939839133522725,63.084346769144034L57.23698200757575,65.43016184547591L57.53179091698233,64.11586542374508L57.826453953598474,65.39195266632892L58.1233050820707,66.49036540486581L58.414029553345955,67.85954099186371L58.71015131786616,67.72498025464635L59.008315301452015,66.95484816640482L59.30560404829545,67.03274218201632L59.60478914141414,70.31475744297262L59.907037563131304,69.64138823850529L60.20126298137626,66.98857391953406L60.501469184027776,70.73862641615122L60.8057598248106,67.89004462147702L61.10450729955808,69.34016102156527L61.410402541035346,70.48677096005203L61.71454730902777,68.83155172751604L62.01431589330807,71.99508119572323L62.32312859059343,73.5254202291059L62.62435590277778,73.08894982811195L62.92208226799242,74.27788572779816L63.22199672506312,65.23860045138557L63.64882050978535,67.22587543049744L63.98841236584595,71.3358170830287L64.28745158617424,74.95372298827726L64.58722017045454,75.54813787095235L64.88275844381312,78.01553272524784L65.18413162878787,77.78812309828189L65.47646070075757,77.77764562168535L65.77622928503787,78.01380457430508L66.07804008838383,79.68109466847798L66.37766279987375,80.99583453423851L66.67349281881313,81.5339248320492L66.97486600378788,82.17761314617607L67.27974013573231,80.84109546666551L67.58286379419191,81.28821533152711L67.8820488873106,85.13657938892658L68.18561016414141,82.66108546802143L68.4846493844697,82.3948772662668L68.78543907828283,86.15559053741507L69.08301957070707,82.01229004524541L69.37009722222221,84.60046190816482L69.66971993371212,84.96811571194316L69.96934264520203,87.9282613821006L70.26648551925504,87.38924560842588L70.56333664772725,88.79166047580907L70.8642722143308,92.78410848874078L71.174835385101,91.7896559828732L71.4709571496212,92.35025654047212L71.77320557133837,92.80075771666574L72.06582638888888,89.89932132871257L72.36559497316918,90.12284758136367L72.66084150094697,92.86388777146942L72.96732023358585,96.1208626644651L73.26446310763887,92.61791076596025L73.56204360006312,89.57327916066474L73.85831123737374,89.20925141553226L74.15516236584595,88.1935597817416L74.45814015151515,86.4936569256458L74.75849222695707,88.1244262061791L75.05855255681817,81.38472552606127L75.35365321180556,87.98721491788638L75.65575576073232,89.90609729460951L75.96004640151516,90.12291418752302L76.25966911300505,89.31950584400533L76.55681198705807,90.4336565772805L76.85862279040404,95.84535225785328L77.16130883049242,95.55671076683286L77.46837105429293,94.49297579174966L77.76609741950756,98.08610671957159L78.07578535353535,102.74627857457317L78.37467870107324,99.85871661750723L78.67211332070707,101.05452671697782L78.97406999684343,103.7788327230653L79.32751976799244,105.22336520227485L79.69147238005051,106.46162737851668L80.43688233901514,107.31158775941559L80.81775619476011,108.47587128823629L81.11519081439394,108.46495350167727L81.40562354008838,105.42927908389639L81.70553799715908,106.52929540182342L82.01391307607322,106.7169365678859L82.31426515151514,108.34868993921592L82.6153465909091,105.80531756515771L82.91073899147726,108.39382269518809L83.21619661458334,108.62124989206289L83.52063312815655,110.68594031616152L83.82331916824492,109.0836423254855L84.13111075599747,109.1832583311347L84.44400789141415,111.75416520439087L84.75107011521465,112.93362958639875L85.05725710227273,115.87200822280712L85.36563218118687,114.6675670454023L85.65941998106061,113.77419320452128L85.96356474905302,114.83496827983502L86.27062697285352,115.29103409081668L86.57827268781566,112.65388828926253L86.87862476325759,115.70404910987914L87.18291540404039,113.88140940959755L87.48385097064394,114.34765656444644L87.78668288352272,114.54609254154627L88.08703495896465,115.63424872761955L88.39934860321969,116.8423631514004L88.71487144886363,116.62507464282284L89.02616398358585,117.96516727952948L89.32855827809342,118.94239521342824L89.63562050189392,116.43791141184468L89.9419533617424,115.97553574833013L90.24886971275251,117.17300315122674L90.55126400726009,118.18378947893919L90.86649510732323,119.82873516952583L91.1758912957702,119.97474747749105L91.47799384469695,118.53705692825358L91.78797352430556,119.43964429874117L92.09809907670454,121.20063535166327L92.39713829703281,120.23504790322755L92.70551337594696,115.96014067571156L93.003385613952,120.2697061780038L93.30009086963385,120.97950633351705L93.60160992739898,122.55952154906754L93.90079502051769,124.11566782569201L94.34103910195708,123.19209654177428L94.677859375,119.47194145800239L94.9776279592803,120.46491750161691L95.27666717960858,119.02280464328217L95.57220545296715,117.5937815337603L95.87868418560605,118.07505027313661L96.17772340593434,118.32797517467915L96.47647088068182,118.64001373594043L96.77755232007576,123.13566027798345L97.07717503156564,121.56172974847345L97.38642534722221,124.44057414966524L97.68692329545455,125.49175238750301L97.9845037878788,123.98646905691001L98.28646046401515,120.9763051531265L98.59016761363637,120.38071191176506L98.89197841698233,124.14781858144065L99.19583143939394,119.37994372824708L99.5011431897096,119.189679517625L99.79974479166665,119.20306785996281L100.09834639362374,124.09684473445043L100.39957370580807,123.54717035146784L100.7003633996212,127.59853765915818L101.00830086016413,128.89418036772193L101.30719420770201,129.09570170225524L101.60462882733584,128.06783738553094L101.90746074021463,126.55651228296666L102.20737519728536,127.92654629860523L102.50597679924243,126.78308704674545L102.8082252209596,123.27127506585148L103.11732966382574,123.40244858586485L103.43066441761364,123.09556201700086L103.7291201467803,126.41186663094169L104.03691173453284,125.79780896561284L104.33872253787878,125.16162065107896L104.63513604797978,126.11678709108716L104.93957256155302,127.56374782887973L105.23598607165403,126.88508222893465L105.54552813289142,126.74263525018947L105.85404908459594,128.95852845677126L106.16373701862375,125.07512222473856L106.46729829545453,125.89611118650127L106.77304766414142,126.54555703529542L107.07894290561867,129.79110578586068L107.38046196338382,130.171953750589L107.6793553109217,129.32725670369874L107.98481293402776,130.16908743951473L108.29114579387627,132.7334548325821L108.59660341698232,132.88680888800042L108.89812247474747,131.53879366190705L109.19336900252524,129.27239176381764L109.49649266098486,125.83770939864397L109.80501361268938,127.77479814245535L110.11280520044191,125.92530014179306L110.41899218749998,126.44681219188182L110.73101408617423,126.72443607281164L111.03909741950757,129.57481111221742L111.34353393308082,129.69297112634132L111.64753282828282,129.03365815162888L111.9500729955808,130.13142019435753L112.24838285195705,128.77671462235L112.55544507575756,128.56399053713733L112.85565127840908,131.49099940743835L113.15600335385099,129.97814155728997L113.45387559185605,134.06294285205735L113.74897624684343,132.96553466101682L114.04918244949495,134.59664512225365L114.34909690656563,133.94526152032722L114.6507618371212,134.23406974198025L114.95855342487371,137.116893607679L115.26138533775251,133.35793788646782L115.57282374526514,132.59484785045535L115.87390518465911,133.48628484621486L116.17834169823232,134.32713488323702L116.47635980902777,133.88985587256195L116.773940301452,132.02909972902899L117.08173188920453,135.5258366590248L117.38295920138887,135.86286506994134L117.67908096590908,137.99618693673781L117.98307986111111,136.9845467203747L118.28591177398987,138.71289338395903L118.593557488952,137.0817809604048L118.90134907670453,137.65269870594594L119.20651495422979,137.27103145161104L119.50978448547978,135.6809016619292L119.8098448153409,137.91621215018486L120.11398958333334,138.8810582196892L120.41594625946969,136.69342235576548L120.72855164930556,134.29986669949093L121.03648910984847,134.9246997666027L121.35522115688131,137.4529356575757L121.67424494949495,138.6598806917171L121.98495399305554,138.9679482335803L122.30383191287879,136.1170930616924L122.61279048295454,136.00068983825588L122.9256876183712,137.85849766745542L123.24544077493687,137.80907196936394L123.55148188920454,138.4686272302704L123.85635602114898,141.568953256711L124.16195951704545,140.8705796827631L124.60818438289142,136.24489095304625L124.93348070549243,142.52998755732963L125.23120707070707,139.0811464079465L125.53330961963383,137.08422640675778L125.8357039141414,134.53285108521416L126.13882757260102,135.00296453513513L126.43217775410353,136.64527067164792L126.73238395675503,135.45765624027473L127.0308396859217,134.92896280036348L127.32375224905302,134.56404618243124L127.62818876262625,128.89685216695065L127.92999956597221,131.6016421253532L128.23822877209597,136.01351432681028L128.5403313210227,135.54775763539524L128.83718244949495,135.3633011741419L129.1354923058712,135.1313525421389L129.42898836016414,137.4334239536407L129.73240376420455,140.32656351151735L130.03290171243688,141.70403537957884L130.33646298926766,142.52819937426628L130.63521046401513,142.90414294554358L130.93672952178028,139.28104084413283L131.23241366792928,138.93942626373553L131.5332033617424,137.1835412325968L131.83953622159092,132.9265105717202L132.14674431818182,132.1220696424117L132.4498679766414,131.6232454875042L132.7500741792929,132.32396473501524L133.05348958333335,132.9646396729211L133.35354991319443,137.01938127105333L133.65010929608584,136.39144137759308L133.94885677083334,134.86985895380994L134.25883645044192,135.72596746954892L134.56050138099747,137.49741580216642L134.86668836805555,135.2807123886951L135.16952028093434,139.1117129240513L135.48329265309343,141.60597849583658L135.78743742108585,142.492273053466L136.09129044349746,142.0958182589533L136.39412235637624,144.4483450385583L136.6998717250631,142.23010987150957L137.00182840119948,141.25282053711243L137.3056814236111,139.33230134786012L137.60355366161613,141.38998002659133L137.90390573705807,139.86802810481302L138.20746701388887,142.8765185919249L138.51394574652778,143.3646039951768L138.81663178661617,143.395162104823L139.11479577020202,139.54172218862703L139.41587720959595,141.4836570244137L139.71520817550504,145.17175228051508L140.01541437815655,145.77285653629454L140.3170793087121,146.13978595120685L140.61743138415403,145.79513109396822L140.91676235006312,145.6358794887033L141.22134473642674,145.63308073753865L141.5228637941919,146.10813827480405L141.81942317708334,144.04795593071032L142.12371381786613,142.22863978519987L142.42392002051767,144.28498245268887L142.71829131155303,143.827388186203L143.01193323863637,143.48743027878209L143.31082658617424,141.49006635794785L143.6138043718434,138.97590284534868L143.9164904119318,139.28444951800552L144.2197599431818,139.01825619613362L144.5196744002525,142.42237648770174L144.82031822127524,144.39252445312752L145.12694282670452,145.54686349849734L145.42802426609848,140.7965596618943L145.73727458175503,142.37993293975478L146.040544113005,143.00949217227395L146.34045857007575,143.2390167084176L146.64401984690656,143.27677066527244L146.94962334280302,140.04770940346702L147.25114240056817,140.1758352802788L147.54741003787876,139.26431292764792L147.8521382970328,138.6322854798954L148.1549702099116,139.73797505209185L148.451529592803,141.5129818688307L148.75479912405302,138.61092865691683L149.06156960227273,139.11795815550772L149.36761071654038,143.5155603675367L149.67219310290403,143.0940886815274L149.98348563762625,141.6942532483522L150.28631755050503,143.96789830946116L150.58900359059342,141.16721176811924L150.89300248579545,142.11542922169082L151.19831423611112,144.27941182382816L151.5014378945707,143.37655612683062L151.8048532986111,143.63031899559002L152.11264488636365,143.32158237579034L152.41956123737373,140.99882945842074L152.72881155303028,143.14293033004694L153.03062235637623,141.86136135550692L153.33360014204544,141.98880246800664L153.64168347537876,141.66799032324082L153.94407776988635,142.37056132637952L154.24734730113636,143.4200705259301L154.55820221748738,146.75714327124948L155.02543276515152,147.1257530478289L155.32913991477272,146.72579791772344L155.62978373579543,143.73734057631887L155.9320321575126,144.5779926166076L156.23982374526514,144.6445499473549L156.5423639125631,144.83920669554035L156.85205184659088,147.1618826784174L157.15284154040404,147.48844830617662L157.44589997632576,147.67300113231266L157.74887776199492,146.55595615327456L158.05448125789138,142.67448242825435L158.35964713541665,145.79264958499047L158.66306253945706,143.76955901236846L158.9635604876894,141.9951362912877L159.26289145359846,141.76458864168342L159.5629517834596,144.93987416993602L159.86272036773988,143.83626734072286L160.16613577178026,143.78883150177L160.46444562815654,145.5188643527687L160.76800690498735,145.94873267326682L161.07113056344696,144.56810827193428L161.38038087910354,146.8756683338141L161.6842339015151,146.0280909520417L161.99115025252524,146.1716437839296L162.29062709122474,148.57300011222895L162.59389662247474,148.61088538735703L162.9078148674242,148.59730363397225L163.21093852588382,148.76177317749156L163.5096860006313,149.38121906414665L163.8129555318813,148.1860677794634L164.11286998895199,145.8963841998205L164.4190569760101,144.855958640667L164.72407698074494,145.50974444880168L165.02515842013887,147.8534906609452L165.32799033301765,149.2249226364203L165.63082224589644,147.0476385877546L165.93467526830804,148.9457943671151L166.23546496212117,149.78073213264318L166.5435482954545,150.24678532359377L166.85338210227272,145.71947538386988L167.15329655934343,147.47202313552066L167.46867353219696,146.78623558521218L167.77325591856058,146.09817550100303L168.07871354166662,148.56088603255213L168.3834418008207,147.85836108390583L168.68306451231058,149.01130849072882L168.98881388099744,148.30355885550458L169.2932503945707,149.39354721453975L169.5934565972222,149.0717721697165L169.89789311079542,150.50561858737132L170.19882867739898,150.00915963852503L170.50020186237373,148.6426164638598L170.80493012152778,148.29820225484343L171.10688679766415,148.30763258762485L171.4127820391414,149.35664078509888L171.7156139520202,147.13058158205763L172.02924045138886,147.46167475269985L172.33075950915403,151.16386871587198L172.6341749131944,149.96042243645954L172.93175540561867,150.85420977032874L173.22816891571966,147.86051496631455L173.52939622790402,152.14740096006935L173.83456210542928,152.64936427652873L174.13549767203278,150.56488210298912L174.4419764046717,149.11841627156747L174.74830926452017,147.260504809408L175.0556632339015,147.90338505616472L175.35805752840906,147.1804015012244L175.66409864267678,148.84112312553194L175.95978278882575,147.8474842446081L176.26392755681815,149.7902738449929L176.56573836016412,150.7764305313793L176.86258948863633,146.42303111030444L177.16294156407827,148.91422749008993L177.46139729324494,150.8441712740509L177.7636457149621,150.79398393000324L178.0702703203914,151.4646678904401L178.37062239583332,152.90852309005038L178.67184970801767,154.8460807728924L178.97336876578282,152.3126027805452L179.29370541351008,149.82383282256745L179.60674842171713,151.4245484305431L179.90958033459592,152.5586165172659L180.20949479166663,154.11949331037223L180.51976621685606,153.49449902736148L180.8287247869318,153.42275980052966L181.14497699652776,150.78766647425576L181.4532062026515,150.699283687641L181.75632986111108,151.65018250282975L182.06966461489895,148.40276991088666L182.37366351010098,149.19180390674578L182.68408080808078,148.10715124262185L182.9867668481692,147.8778253564285L183.2907657433712,146.1357013048844L183.58878385416665,143.03372064470736L183.89249100378785,147.46524981802693L184.20276242897728,144.79544953968676L184.51026227114897,145.20037328299227L184.94073287563128,148.98680322178626L185.28893122632573,145.09436715388787L185.59774392361106,144.22604713999652L185.9010134548611,144.6732717099689L186.20588758680552,148.80423160739846L186.50959473642675,149.66665028010587L186.81184315814392,150.01791238814934L187.11627967171714,150.04499170518267L187.41561063762626,148.79175935291315L187.71464985795453,151.24186766874482L188.01908637152778,149.9072582014124L188.324981613005,150.14095652226527L188.6337943102904,151.5876315791391L188.9386684422348,152.84890516325095L189.23902051767675,151.5927975260773L189.54593686868685,151.22649221666353L189.84818529040402,149.07452226742885L190.15247593118687,153.1874474592714L190.461580374053,154.44335799466631L190.76295355902775,155.62020050160504L191.0717662563131,157.14771988988312L191.37707800662875,155.518116306283L191.68078515624998,154.84500835471422L191.9840546875,152.42436153563133L192.2914086568813,152.9818066066059L192.59249009627524,153.6830035017191L192.89765597380048,153.21908464999612L193.20646867108582,155.3659315911115L193.5088629655934,156.46414993002512L193.8146123342803,154.72806449597803L194.12109106691918,153.16715712790037L194.42304774305555,154.17059300086447L194.72690076546718,154.4795817840496L195.03469235321967,153.25766336497088L195.3385453756313,150.47005041624843L195.63597999526513,150.78394726667673L195.94027063604796,150.5489968926706L196.24602000473485,149.81659751225163L196.54316287878785,146.67868389104493L196.8481828835227,152.0848428249472L197.15189003314393,145.03026689243865L197.45326321811868,146.27002235328894L197.7609089330808,148.50580452279658L198.06942988478534,146.802531667096L198.38495273042926,147.94320697824327L198.69201495422973,151.60086004144273L198.99440924873733,151.09335428055002L199.29826227114896,148.1671902443913L199.6025529119318,146.9652040682684L199.90917751736112,147.24739284636885L200.21142593907828,148.71938580123822L200.50900643150248,144.31227515192674L200.8087750157828,140.35752020119423L201.10635550820706,139.4258617844309L201.40145616319444,137.6045867951728L201.69757792771463,140.40673904769025L202.00157682291663,144.6286775674787L202.30426286300505,144.6803671756838L202.61132508680555,146.99185256442772L202.91751207386363,148.36682929154568L203.22267795138885,149.61044477109095L203.5244887547348,151.4050538337828L203.83271796085856,148.5902483241467L204.13613336489897,150.2754481234988L204.4398405145202,150.98522555081013L204.74354766414137,152.0740866173914L205.04302450284086,154.0325425548783L205.3446894333964,152.44769723523729L205.65262689393936,150.96653139219492L205.95677166193178,153.34568028976264L206.260478811553,154.4520604207104L206.56564468907828,156.5767528951006L206.88452260890148,154.48230625443864L207.1920224510732,151.4486586476034L207.5020021306818,152.04771485153313L207.8093561000631,150.3081863254727L208.12137799873736,151.2778328761006L208.43821369949492,153.44086943908223L208.7435254498106,155.7874499650561L209.05131703756308,155.9214328699665L209.358525134154,155.59652004629487L209.661065301452,155.8539731256246L209.97250370896464,152.84917952464724L210.28029529671713,155.5399164106359L210.58487768308078,152.91273790680094L210.8992335464015,152.81679776187545L211.212422427399,151.01792741433025L211.53261320233585,151.46022127189843L211.83384051452018,153.33585975362107L212.14046511994948,154.66942358880357L212.4443181423611,155.99593849623193L212.7490464015151,154.78852207420843L213.05012784090906,156.21194662375717L213.35675244633836,153.59029162497526L213.65870912247473,155.10724226164027L213.96008230744948,154.58586625017546L214.2637894570707,154.70254231214426L214.57231040877525,156.09321760773133L215.00146815814392,156.8707209692834L215.36046109532828,155.1468775314936L215.67087839330807,155.50252807362722L215.9820250552399,154.66215146259853L216.2963809185606,155.8189967786305L216.60081743213382,157.25827667145586L216.90175299873735,156.98539863234288L217.2061895123106,152.13822583378837L217.51266824494945,153.53886624844912L217.81754237689393,152.64232223749372L218.11993667140146,154.0712635147415L218.42262271148988,152.5826321403475L218.72516287878784,157.7553852445147L219.02347273516412,155.80961323440505L219.33126432291664,155.0966159121451L219.633220999053,157.31144914637613L219.9434924242424,155.8605194110906L220.24501148200756,156.0767458717335L220.54609292140148,156.9899487825185L220.85505149147727,155.88506885412212L221.15569531249997,158.55352155095773L221.45721437026512,156.61708163770686L221.7590251736111,158.70258769711046L222.06462866950756,159.75071071562382L222.36746058238634,156.17401498828852L222.67160535037877,155.50224448989846L222.97633360953282,156.88499180683093L223.28062425031564,160.74276859346008L223.58841583806813,160.23923063570385L223.89358171559343,158.37137708618783L224.1961218828914,158.59146999946344L224.4973491950757,157.94131077079297L224.80091047190655,159.7457707908877L225.1053469854798,158.44374380667054L225.4124092092803,159.05400139751927L225.71115668402774,157.18563956649868L226.0253666745581,157.24747849099475L226.33140778882574,158.35359607354422L226.64240857796716,155.21850508529337L226.95151302083332,158.07120669638812L227.26120095486107,155.78349412529536L227.56724206912878,156.0305620380377L227.86584367108583,156.9630161456817L228.16152781723486,158.993324794827L228.47063226010098,158.32405093128148L228.77696511994947,158.41164738664554L229.0917586016414,157.28856136141368L229.4066979561237,158.52556094833554L229.71536478061867,158.25792135420892L230.03015826231058,156.36002833593489L230.33970032354796,153.5141352646015L230.64209461805555,156.60106169092023L230.9513449337121,155.9574769520221L231.2586989030934,155.9568748399139L231.57115842013886,157.599560727743L231.8697600220959,160.15888007164887L232.17419653566915,158.93403890000297L232.47236051925503,159.41106930549068L232.77621354166666,158.50008321760805L233.08838131313126,158.42550812210177L233.3950059185606,159.41693079193166L233.7026516335227,159.3481075604497L234.00665052872472,156.2696063940399L234.3131292613636,157.64827272496134L234.61844101167927,156.9984111910416L234.92098117897726,156.02160690773346L235.2324195864899,155.45531212181174L235.53714784564391,152.94673562036255L235.84333483270197,157.30177852335515L236.15229340277776,158.1008274191772L236.46110610006312,156.6242649166742L236.7742949810606,156.18884530620915L237.0816489504419,149.50140776378683L237.38973228377523,140.6219964425066L237.7020459280303,135.56475935648928L238.00794116950757,134.85441087243288L238.30435467960854,133.09640793804786L238.60572786458332,141.60892002151976L238.9075386679293,128.27390826399875L239.2092035984848,140.09432046012375L239.5149529671717,146.26280670170186L239.81793075284088,143.7912900978172L240.118720446654,146.15383048802695L240.42140648674243,147.68445641449432L240.7173823784722,149.65450784214488L241.01729683554294,150.51729940897823L241.33077746212118,150.32480954529373L241.6371103219697,153.74634774649883L241.94431841856056,151.81968676696445L242.2601330097853,152.2791191700261L242.5629649226641,154.74309205918075L242.87236111111108,154.50224393941127L243.18102793560604,154.96409872847258L243.48706904987372,154.38161461070027L243.7935477825126,155.5701346076311L244.09287874842167,157.61978015308338L244.39148035037874,157.0962906348697L244.69722971906566,154.91446686915594L245.11311304450754,157.4996375387487L245.48742262468434,155.82534239110456L245.7998821417298,155.65560090430887L246.10927833017675,159.3142812105747L246.41736166351006,158.10827905984598L246.72763308869946,155.44536659048808L247.02623469065654,157.5180685694618L247.3314005681818,158.71316040115585L247.6346700994318,158.33809200690504L247.94596263415403,156.09848358837795L248.26192309816918,156.148117312184L248.56825595801766,156.11230478451054L248.86758692392672,151.8329497178553L249.17523263888884,151.5875481335955L249.4719378945707,145.3658482775209L249.7784166272096,144.19160733575495L250.08606234217172,145.0038803193536L250.38524743529038,147.32977282924585L250.69464362373733,143.1852845968231L250.9955791903409,151.30669923501932L251.30132855902775,150.2802480345187L251.61480918560605,148.4858419316784L251.92245490056817,151.4956329038142L252.22849601483583,149.3342712951078L252.53278665561865,152.2819224620356L252.8413076073232,154.73020628496647L253.13932571811867,156.0787760052905L253.43953192077018,155.765587029457L253.73973812342166,152.394618397901L254.0460709832702,154.05130264060446L254.357217645202,154.8472108823798L254.6581532118055,154.2417881177438L254.9646319444444,153.37645438323761L255.2714024226641,153.8499744371437L255.5700040246212,153.58695296571545L255.87531577493684,157.84261393879638L256.1771265782828,158.84557352261052L256.48637689393934,156.9251870405138L256.78862531565653,156.96767985353966L257.08751866319443,157.27873924550642L257.39151755839646,160.8135965316269L257.68793106849745,158.3645359592501L257.9933886916035,157.48724803979752L258.29767933238634,157.73063976983428L258.60094886363635,159.78680997750976L258.91282488952015,156.5972729376678L259.22280456912875,154.7939335833488L259.5246153724747,158.9006950046601L259.8379501262626,158.62965994788678L260.14282425820704,159.55743439229676L260.44842775410353,158.90322486492516L260.75228077651514,158.51710470724908L261.0552585621843,158.5842364044495L261.3631960227272,157.6337817759467L261.6651526988636,159.73799359077415L261.96302493686863,159.72039638750616L262.25929257417926,158.72364989655148L262.5497252998737,159.6962133275444L262.85007737531566,159.02192147263585L263.1524716698232,160.3680114141932L263.45165676294187,159.2754202249636L263.7505501104798,159.7029203896893L264.05148567708335,158.08298771524372L264.35154600694443,158.88415087557192L264.6384777856692,161.6409526570204L264.94306017203286,160.661095924466L265.2473508128156,162.09136988047612L265.5462441603535,162.61225130670263L265.84017783301766,161.20651093036847L266.1333821417298,163.35979230179694L266.4389856376263,162.3243698733162L266.7406505681818,161.20756664722322L267.0396897885101,162.4461067380537L267.34135471906563,160.7411642886307L267.6536683633207,160.9710267136965L267.961022332702,162.20187089124227L268.2705643939394,162.0455234103317" style="fill: none;" fill="none"></path></g></g></g></g><g opacity="0.2"><g><g><g><path stroke="rgb(255, 112, 67)" stroke-width="2px" d="M26.257102272727273,28.366701149940482L26.555849747474745,28.55668594837188L26.84555310921717,28.670246386528007L27.14736391256313,28.89599575996398L27.443485677083334,29.06230630874633L27.7420872790404,29.276999258995048L28.03762555239899,29.50055422782897L28.328495896464645,29.854950571060172L28.62986908143939,30.53198769092559L28.926428464330808,31.027859830856315L29.223133720012626,32.19281437397002L29.524652777777774,32.76051106452941L29.82237914299242,33.79683973789214L30.112957741477274,34.08529844284057L30.407766650883836,33.10790219306945L30.703450797032826,33.29932179450988L31.004094618055557,33.992732548713676L31.30298796559343,34.230319046974174L31.606111624053028,34.75940265655517L31.902671006944445,34.65896644592284L32.20141848169192,34.143070363998405L32.5148991082702,35.34032907485961L32.97264792455808,34.08975055217742L33.27124952651515,34.827175998687736L33.5726227114899,34.76244106292724L33.87093256786616,34.613706851005546L34.16661671401515,35.8000779390335L34.457487058080815,35.036720538139335L34.76177769886363,34.94850125312804L35.06417199337121,36.43336411714553L35.36627454229798,35.379469656944266L35.667793600063135,34.60275592803954L35.97135487689393,35.76879712343215L36.28031344696969,36.486504578590385L36.5765810842803,35.476899111270896L36.87547443181818,35.45596786737441L37.170720959595954,36.58409228324889L37.472677635732325,37.9789845585823L37.77886462279041,37.52463730573653L38.083155263573225,38.87825789451598L38.38321559343434,38.606753075122825L38.68604750631313,39.38536580801009L38.984357362689394,40.708011531829825L39.28952324021465,41.80401113033294L39.58900007891414,43.52170243263244L39.888622790404035,43.55178054571151L40.19043359375,41.45249494314193L40.49049392361111,45.67653390169143L40.79157536300505,42.876241528987876L41.09367791193182,43.10450180768966L41.39198776830808,43.23955264091491L41.689276515151505,44.49894043207168L41.98729462594697,45.294591450691215L42.29318986742424,47.74917014837264L42.59748050820707,45.75645031929015L42.89987480271464,48.38551583290099L43.195850694444445,47.85202231407165L43.49095134943182,46.56640716791152L43.789552951388885,47.50946309566497L44.0862582070707,50.865393483638755L44.38879837436869,48.4689348578453L44.68739997632576,49.47119750976562L44.98643919665403,50.73135545253753L45.28562428977273,53.46893849372863L45.58335065498737,50.93849458694457L45.87480449021464,52.01414319276809L46.16669594381313,53.64334090948104L46.462380089962124,54.562690937519065L46.76404502051767,52.70638289451598L47.05579060132575,55.1012379169464L47.35337109375,54.566130244731895L47.649055239898985,54.21276780366897L47.94794858743686,53.74280651807784L48.252093355429295,53.77156587839126L48.55011146622474,53.84524723291396L48.853089251893934,57.65896418094634L49.14585594223485,57.49483748674392L49.44606214488636,55.764000856876365L49.74437200126262,58.837728703021995L50.04691216856061,59.28710689544677L50.34872297190656,61.2891634941101L50.64090617108586,58.812239849567405L50.93892428188131,57.873003029823295L51.246569996843434,57.937579715251914L51.542691761363635,58.59117468595504L51.84027225378788,61.201767110824576L52.140478456439396,57.69704976081847L52.44083053188131,58.65051856040954L52.7403073705808,62.793480598926536L53.04955768623737,60.196096801757804L53.35341070864899,64.51464285850524L53.65230405618686,60.238866591453544L53.950322166982325,61.59857454299926L54.24979900568182,61.55353649854659L54.54592077020202,67.194242978096L54.84583522727272,64.97867503166198L55.14254048295454,61.757637226581565L55.4407044665404,61.9989584326744L55.74120241477272,63.54327067136764L56.04432607323231,63.888024294376365L56.34424053030303,60.043184781074515L56.64182102272728,65.44082930088042L56.939839133522725,62.56613817214965L57.23698200757575,67.648189330101L57.53179091698233,62.873164916038505L57.826453953598474,66.59852542877196L58.1233050820707,67.52894243001937L58.414029553345955,69.15413113832473L58.71015131786616,67.59774967432021L59.008315301452015,66.22666879892348L59.30560404829545,67.10639294385909L59.60478914141414,73.4179858803749L59.907037563131304,69.00470062494277L60.20126298137626,64.4802708864212L60.501469184027776,74.28439589738845L60.8057598248106,65.19663848876952L61.10450729955808,70.71128275394439L61.410402541035346,71.57091965675353L61.71454730902777,67.2665000796318L62.01431589330807,74.98627831935882L62.32312859059343,74.972394490242L62.62435590277778,72.67625602483749L62.92208226799242,75.40205469131469L63.22199672506312,56.69172760248183L63.64882050978535,69.10489418506621L63.98841236584595,75.22187086343764L64.28745158617424,78.37454452514648L64.58722017045454,76.11017217636108L64.88275844381312,80.3485169649124L65.18413162878787,77.57310154438018L65.47646070075757,77.76773890256881L65.77622928503787,78.2370988368988L66.07804008838383,81.25755962133407L66.37766279987375,82.23895432949065L66.67349281881313,82.04270281791686L66.97486600378788,82.78623672723769L67.27974013573231,79.57738419771194L67.58286379419191,81.71097847223281L67.8820488873106,88.77530493736266L68.18561016414141,80.32044335603713L68.4846493844697,82.14317067861556L68.78543907828283,89.71144005060195L69.08301957070707,78.09469463825225L69.37009722222221,87.04764386415481L69.66971993371212,85.3157416820526L69.96934264520203,90.72715398073196L70.26648551925504,86.8795925617218L70.56333664772725,90.1176792025566L70.8642722143308,96.55906906127929L71.174835385101,90.84937598705291L71.4709571496212,92.88031854629516L71.77320557133837,93.22671797275542L72.06582638888888,87.15593984127044L72.36559497316918,90.33419730663299L72.66084150094697,95.45561059713363L72.96732023358585,99.20041480064391L73.26446310763887,89.30578114986419L73.56204360006312,86.69450297355651L73.85831123737374,88.86505397558211L74.15516236584595,87.2331976532936L74.45814015151515,84.88635578155517L74.75849222695707,89.66635980606078L75.05855255681817,75.01216807365417L75.35365321180556,94.23003562688827L75.65575576073232,91.72044911384582L75.96004640151516,90.32792004346847L76.25966911300505,88.55986293554305L76.55681198705807,91.48711427450179L76.85862279040404,100.96224739551543L77.16130883049242,95.2837929368019L77.46837105429293,93.48718746900558L77.76609741950756,101.4835028886795L78.07578535353535,107.15258892774581L78.37467870107324,97.12845375537871L78.67211332070707,102.18519541025161L78.97406999684343,106.3547329545021L79.32751976799244,106.58920719623565L79.69147238005051,107.63243558406829L80.43688233901514,108.11524679660796L80.81775619476011,109.57673081159591L81.11519081439394,108.45463045835494L81.40562354008838,102.55897214412688L81.70553799715908,107.56938865184783L82.01391307607322,106.89435603618621L82.31426515151514,109.89155402183532L82.6153465909091,103.40049465894698L82.91073899147726,110.84131976366042L83.21619661458334,108.83628805875777L83.52063312815655,112.6381573319435L83.82331916824492,107.56862905025481L84.13111075599747,109.27744778394698L84.44400789141415,114.18502267599105L84.75107011521465,114.0488429903984L85.05725710227273,118.65031954050063L85.36563218118687,113.52873744964599L85.65941998106061,112.92948564291L85.96356474905302,115.8379579424858L86.27062697285352,115.72225584983825L86.57827268781566,110.16040023565292L86.87862476325759,118.58805330991744L87.18291540404039,112.15805747509002L87.48385097064394,114.78850504159927L87.78668288352272,114.73371877670287L88.08703495896465,116.66312792301177L88.39934860321969,117.98466589450835L88.71487144886363,116.41962286233901L89.02616398358585,119.2322587609291L89.32855827809342,119.86638894081115L89.63562050189392,114.06985863447188L89.9419533617424,115.53834786415099L90.24886971275251,118.30523886680602L90.55126400726009,119.13951351642608L90.86649510732323,121.38407292366027L91.1758912957702,120.11280580759048L91.47799384469695,117.1776841521263L91.78797352430556,120.2930634856224L92.09809907670454,122.8656969308853L92.39713829703281,119.32206054925918L92.70551337594696,111.91810777187347L93.003385613952,124.34450935721397L93.30009086963385,121.65064033269881L93.60160992739898,124.05346589684486L93.90079502051769,125.58704348802566L94.34103910195708,122.31883653402328L94.677859375,115.95444073677062L94.9776279592803,121.40380146503448L95.27666717960858,117.6592504620552L95.57220545296715,116.24260404109954L95.87868418560605,118.53010203838348L96.17772340593434,118.56712206602096L96.47647088068182,118.93505408763885L96.77755232007576,127.38640778660773L97.07717503156564,120.07353862524032L97.38642534722221,127.16259434223174L97.68692329545455,126.48566799759864L97.9845037878788,122.56318559646606L98.28646046401515,118.1301190495491L98.59016761363637,119.81756343841552L98.89197841698233,127.70971321463584L99.19583143939394,114.87179746627807L99.5011431897096,119.00977989435195L99.79974479166665,119.21572687625884L100.09834639362374,128.72403454184533L100.39957370580807,123.02743932008742L100.7003633996212,131.42920791506768L101.00830086016413,130.1192433178425L101.30719420770201,129.2862452208996L101.60462882733584,127.09596567749976L101.90746074021463,125.1275161743164L102.20737519728536,129.2219481110573L102.50597679924243,125.70191740393638L102.8082252209596,119.95076801776885L103.11732966382574,123.52647646665572L103.43066441761364,122.80539300441741L103.7291201467803,129.54751651883126L104.03691173453284,125.2172019124031L104.33872253787878,124.5600885093212L104.63513604797978,127.019921118021L104.93957256155302,128.93188580274582L105.23598607165403,126.24338673949241L105.54552813289142,126.60794802904128L105.85404908459594,131.053711527586L106.16373701862375,121.40326341390609L106.46729829545453,126.67237701416015L106.77304766414142,127.15962451100349L107.07894290561867,132.85985421538354L107.38046196338382,130.53205513358117L107.6793553109217,128.52857428193093L107.98481293402776,130.96505969166756L108.29114579387627,135.1581290602684L108.59660341698232,133.0318090260029L108.89812247474747,130.26421117186547L109.19336900252524,127.12945144772529L109.49649266098486,122.59013035297393L109.80501361268938,129.60636454224587L110.11280520044191,124.17655300498008L110.41899218749998,126.93991502523421L110.73101408617423,126.98693647384643L111.03909741950757,132.26991280317307L111.34353393308082,129.80469440817834L111.64753282828282,128.41026105880738L111.9500729955808,131.16938197016717L112.24838285195705,127.49580624103545L112.55544507575756,128.3628545343876L112.85565127840908,134.25856032371522L113.15600335385099,128.54769619703293L113.45387559185605,137.92522578835488L113.74897624684343,131.92790746092797L114.04918244949495,136.1389013171196L114.34909690656563,133.32936185002328L114.6507618371212,134.50714522004128L114.95855342487371,139.8426764845848L115.26138533775251,129.80375018119813L115.57282374526514,131.87332692146302L115.87390518465911,134.32916107177735L116.17834169823232,135.12217985987664L116.47635980902777,133.4763975083828L116.773940301452,130.26970773339272L117.08173188920453,138.83208986520768L117.38295920138887,136.18153395652772L117.67908096590908,140.01329671740532L117.98307986111111,136.02801530957223L118.28591177398987,140.34708886742592L118.593557488952,135.5395229101181L118.90134907670453,138.192515873909L119.20651495422979,136.91015540957451L119.50978448547978,134.17739372849465L119.8098448153409,140.0297547519207L120.11398958333334,139.79334458112717L120.41594625946969,134.62495731711388L120.72855164930556,132.0366992890835L121.03648910984847,135.51549523472787L121.35522115688131,139.84344663619996L121.67424494949495,139.80107774734498L121.98495399305554,139.2592338860035L122.30383191287879,133.42153739333153L122.61279048295454,135.89062764644623L122.9256876183712,139.61510195732117L123.24544077493687,137.76233872175217L123.55148188920454,139.0922534108162L123.85635602114898,144.50038992762566L124.16195951704545,140.21024980545045L124.60818438289142,131.8711852669716L124.93348070549243,148.47270535826684L125.23120707070707,135.82017987370492L125.53330961963383,135.19608803987504L125.8357039141414,132.12046118974686L126.13882757260102,135.4474686920643L126.43217775410353,138.19811266064644L126.73238395675503,134.33473675847054L127.0308396859217,134.4290697813034L127.32375224905302,134.21900829076768L127.62818876262625,123.538376891613L127.92999956597221,134.15908944010735L128.23822877209597,140.1850510776043L128.5403313210227,135.10737290382386L128.83718244949495,135.18889292478562L129.1354923058712,134.91203924417496L129.42898836016414,139.61009069681168L129.73240376420455,143.06210013628007L130.03290171243688,143.00646986961365L130.33646298926766,143.30746727585793L130.63521046401513,143.25960710048676L130.93672952178028,135.85530617237092L131.23241366792928,138.61642103791237L131.5332033617424,135.5233075261116L131.83953622159092,128.90138041377068L132.14674431818182,131.3614503979683L132.4498679766414,131.151594632864L132.7500741792929,132.98651250600815L133.05348958333335,133.57041403055192L133.35354991319443,140.8532420039177L133.65010929608584,135.79770832657815L133.94885677083334,133.43116428852082L134.25883645044192,136.5354397237301L134.56050138099747,139.17236500382424L134.86668836805555,133.18476324677468L135.16952028093434,142.7340208232403L135.48329265309343,143.96436967849732L135.78743742108585,143.33028697371483L136.09129044349746,141.72096022367478L136.39412235637624,146.67271860837937L136.6998717250631,140.13271241784096L137.00182840119948,140.32876875400544L137.3056814236111,137.51640188097954L137.60355366161613,143.33556725978852L137.90390573705807,138.42898406982422L138.20746701388887,145.72112243771554L138.51394574652778,143.82610108852387L138.81663178661617,143.424055570364L139.11479577020202,135.8981972873211L139.41587720959595,143.3198055267334L139.71520817550504,148.6589396238327L140.01541437815655,146.34121581315995L140.3170793087121,146.48672699332238L140.61743138415403,145.46925120949746L140.91676235006312,145.48530306816102L141.22134473642674,145.63043444752694L141.5228637941919,146.5573171913624L141.81942317708334,142.10000141859055L142.12371381786613,140.50843035578728L142.42392002051767,146.22930645346642L142.71829131155303,143.39472123384476L143.01193323863637,143.1659914791584L143.31082658617424,139.6015082538128L143.6138043718434,136.59869765639306L143.9164904119318,139.5761882007122L144.2197599431818,138.7665636777878L144.5196744002525,145.64105831980706L144.82031822127524,146.2553491830826L145.12694282670452,146.63832026124L145.42802426609848,136.30502724051476L145.73727458175503,143.87705242037774L146.040544113005,143.60475634932519L146.34045857007575,143.45603796243668L146.64401984690656,143.3124679863453L146.94962334280302,136.9945503115654L147.25114240056817,140.29698153734208L147.54741003787876,138.40244548916817L147.8521382970328,138.03468754291535L148.1549702099116,140.78343250751496L148.451529592803,143.1912957072258L148.75479912405302,135.8669639468193L149.06156960227273,139.59736737012864L149.36761071654038,147.67360448241234L149.67219310290403,142.6955765426159L149.98348563762625,140.3706734418869L150.28631755050503,146.11768721938134L150.58900359059342,138.51909180879593L150.89300248579545,143.01199280619622L151.19831423611112,146.32551210522652L151.5014378945707,142.52288323044777L151.8048532986111,143.87025820612908L152.11264488636365,143.029664093256L152.41956123737373,138.80260782837868L152.72881155303028,145.17023193240166L153.03062235637623,140.64960547685624L153.33360014204544,142.10930126309395L153.64168347537876,141.3646543264389L153.94407776988635,143.03485997915269L154.24734730113636,144.4124080181122L154.55820221748738,149.91242995262147L155.02543276515152,147.4742829144001L155.32913991477272,146.3476302266121L155.62978373579543,140.91167857646943L155.9320321575126,145.37285038232804L156.23982374526514,144.70748158693314L156.5423639125631,145.0232595741749L156.85205184659088,149.35803156495095L157.15284154040404,147.7972243666649L157.44589997632576,147.84750049710274L157.74887776199492,145.49976187348366L158.05448125789138,139.00445085167885L158.35964713541665,148.74095549583436L158.66306253945706,141.85667570829392L158.9635604876894,140.31737473011017L159.26289145359846,141.54660000801087L159.5629517834596,147.9421869456768L159.86272036773988,142.79277917146683L160.16613577178026,143.74397971630097L160.46444562815654,147.15465416908265L160.76800690498735,146.35518404245377L161.07113056344696,143.2626929819584L161.38038087910354,149.0575247347355L161.6842339015151,145.22668510079384L161.99115025252524,146.30737661719323L162.29062709122474,150.84354325532914L162.59389662247474,148.6467068731785L162.9078148674242,148.58446174263955L163.21093852588382,148.91728329062462L163.5096860006313,149.96692081689835L163.8129555318813,147.05602201223374L164.11286998895199,143.731430464983L164.4190569760101,143.87220996022225L164.72407698074494,146.12791546583176L165.02515842013887,150.06956198215485L165.32799033301765,150.52164625525475L165.63082224589644,144.98896145224572L165.93467526830804,150.74054866433144L166.23546496212117,150.570186907053L166.5435482954545,150.6874504029751L166.85338210227272,141.438789331913L167.15329655934343,149.1291013598442L167.46867353219696,146.13780611157418L167.77325591856058,145.4475972890854L168.07871354166662,150.889441126585L168.3834418008207,147.19410597682L168.68306451231058,150.1014494240284L168.98881388099744,147.6343636751175L169.2932503945707,150.42415877580643L169.5934565972222,148.76752572655678L169.89789311079542,151.86135663986207L170.19882867739898,149.53974514603615L170.50020186237373,147.3505153298378L170.80493012152778,147.97254990935326L171.10688679766415,148.31654920578003L171.4127820391414,150.3485045671463L171.7156139520202,145.02578630447388L172.02924045138886,147.77473171949387L172.33075950915403,154.66438674330712L172.6341749131944,148.8225335419178L172.93175540561867,151.69930830001832L173.22816891571966,145.02990081310273L173.52939622790402,156.2007600903511L173.83456210542928,153.12398328781128L174.13549767203278,148.5939514875412L174.4419764046717,147.75074624419213L174.74830926452017,145.50380253195763L175.0556632339015,148.51124458909035L175.35805752840906,146.496802264452L175.66409864267678,150.4113774240017L175.95978278882575,146.9079735517502L176.26392755681815,151.62723054885865L176.56573836016412,151.7088666200638L176.86258948863633,142.30678185224534L177.16294156407827,151.26971667408944L177.46139729324494,152.66898193359376L177.7636457149621,150.74653052687646L178.0702703203914,152.09881653785706L178.37062239583332,154.2737246990204L178.67184970801767,156.67809056639672L178.97336876578282,149.91713526248932L179.29370541351008,147.47063788175583L179.60674842171713,152.93806552290917L179.90958033459592,153.6309065759182L180.20949479166663,155.5953417956829L180.51976621685606,152.90355112552643L180.8287247869318,153.35492854714394L181.14497699652776,148.2961190879345L181.4532062026515,150.6157155275345L181.75632986111108,152.54928138256074L182.06966461489895,145.33225917220116L182.37366351010098,149.9378555059433L182.68408080808078,147.0815847158432L182.9867668481692,147.66099193096161L183.2907657433712,144.48847895264626L183.58878385416665,140.10071947574616L183.89249100378785,151.65537273287774L184.20276242897728,142.27108585238457L184.51026227114897,145.58323892354966L184.94073287563128,152.5669684946537L185.28893122632573,141.41397040486336L185.59774392361106,143.40502860546113L185.9010134548611,145.096133852005L186.20588758680552,152.71015866994858L186.50959473642675,150.48208894729615L186.81184315814392,150.35003959536553L187.11627967171714,150.07059588432313L187.41561063762626,147.60679646730424L187.71464985795453,153.55850704908372L188.01908637152778,148.6453511953354L188.324981613005,150.36192419528962L188.6337943102904,152.95549943447114L188.9386684422348,154.0414712369442L189.23902051767675,150.40511598587037L189.54593686868685,150.8801412820816L189.84818529040402,147.03978025317193L190.15247593118687,157.0763222515583L190.461580374053,155.63085317015648L190.76295355902775,156.7329348564148L191.0717662563131,158.59202810525895L191.37707800662875,153.97728490233422L191.68078515624998,154.20856776237488L191.9840546875,150.13557874560357L192.2914086568813,153.50888502001763L192.59249009627524,154.34600290060044L192.89765597380048,152.7804376423359L193.20646867108582,157.39582967162133L193.5088629655934,157.50254314541817L193.8146123342803,153.08655180931092L194.12109106691918,151.691279733181L194.42304774305555,155.1193669974804L194.72690076546718,154.77173849344254L195.03469235321967,152.10230859518052L195.3385453756313,147.83429186940194L195.63597999526513,151.08074467778206L195.94027063604796,150.32684537172318L196.24602000473485,149.12409537434579L196.54316287878785,143.71170719861985L196.8481828835227,157.19650282859803L197.15189003314393,138.35998692512513L197.45326321811868,147.44224249720574L197.7609089330808,150.6197931110859L198.06942988478534,145.1920441031456L198.38495273042926,149.02174433469773L198.69201495422973,155.05926352143288L198.99440924873733,150.61349474787713L199.29826227114896,145.40042814016343L199.6025529119318,145.8286957383156L199.90917751736112,147.5142094731331L200.21142593907828,150.11119236946107L200.50900643150248,140.1452405691147L200.8087750157828,136.61819937229157L201.10635550820706,138.54495518803597L201.40145616319444,135.88252522945405L201.69757792771463,143.05624487400056L202.00157682291663,148.62062721848488L202.30426286300505,144.72924100756646L202.61132508680555,149.17742046117783L202.91751207386363,149.66690456271172L203.22267795138885,150.78631466031075L203.5244887547348,153.10190209150315L203.83271796085856,145.92877852320672L204.13613336489897,151.868847155571L204.4398405145202,151.6563380599022L204.74354766414137,153.1036322951317L205.04302450284086,155.8843121767044L205.3446894333964,150.94918590188027L205.65262689393936,149.56605162620545L205.95677166193178,155.59522574543954L206.260478811553,155.49817081689835L206.56564468907828,158.58570336699486L206.88452260890148,152.5019539833069L207.1920224510732,148.58026810884476L207.5020021306818,152.61413764357567L207.8093561000631,148.66341810822487L208.12137799873736,152.19465821385384L208.43821369949492,155.48607521653176L208.7435254498106,158.00620120167733L209.05131703756308,156.04811709523202L209.358525134154,155.28930675387383L209.661065301452,156.0974015235901L209.97250370896464,150.00807117819787L210.28029529671713,158.08407618999482L210.58487768308078,150.42867418527604L210.8992335464015,152.72608392834664L211.212422427399,149.31705000400544L211.53261320233585,151.87842130064965L211.83384051452018,155.10932337641717L212.14046511994948,155.93034192323685L212.4443181423611,157.2501918911934L212.7490464015151,153.64687930941582L213.05012784090906,157.55783053636551L213.35675244633836,151.1114505171776L213.65870912247473,156.54155745506287L213.96008230744948,154.09289204478264L214.2637894570707,154.81286247968674L214.57231040877525,157.40813627243043L215.00146815814392,157.6058700621128L215.36046109532828,153.51693996191025L215.67087839330807,155.83880465626717L215.9820250552399,153.86755412220955L216.2963809185606,156.91282328367234L216.60081743213382,158.61915221214295L216.90175299873735,156.72738554477692L217.2061895123106,147.55510135889054L217.51266824494945,154.8632071852684L217.81754237689393,151.79461719989777L218.11993667140146,155.4223636329174L218.42262271148988,151.17509352564812L218.72516287878784,162.6463541328907L219.02347273516412,153.9698365867138L219.33126432291664,154.42245891094208L219.633220999053,159.4056299865246L219.9434924242424,154.48862864971161L220.24501148200756,156.28119345903397L220.54609292140148,157.85340523123742L220.85505149147727,154.84037693738938L221.15569531249997,161.07661106586457L221.45721437026512,154.78612872362137L221.7590251736111,160.67448642253876L222.06462866950756,160.74173753857613L222.36746058238634,152.79215871691704L222.67160535037877,154.86706849336625L222.97633360953282,158.19241436719895L223.28062425031564,164.390394115448L223.58841583806813,159.76312276124955L223.89358171559343,156.60527431368828L224.1961218828914,158.7995734155178L224.4973491950757,157.3265687763691L224.80091047190655,161.4519333779812L225.1053469854798,157.21264436244965L225.4124092092803,159.63101538419724L225.71115668402774,155.41905620098115L226.0253666745581,157.3059487581253L226.33140778882574,159.39945822358132L226.64240857796716,152.25419726371766L226.95151302083332,160.76850821971894L227.26120095486107,153.62040402889252L227.56724206912878,156.2641709983349L227.86584367108583,157.84467508792878L228.16152781723486,160.91303297281266L228.47063226010098,157.69123556613923L228.77696511994947,158.49447205066681L229.0917586016414,156.22665511965752L229.4066979561237,159.6951753437519L229.71536478061867,158.00486134886742L230.03015826231058,154.56552248597146L230.33970032354796,150.82327138781548L230.64209461805555,159.5198287010193L230.9513449337121,155.3489513039589L231.2586989030934,155.95630552768708L231.57115842013886,159.15276178121567L231.8697600220959,162.57878124117852L232.17419653566915,157.77592059373856L232.47236051925503,159.8621136188507L232.77621354166666,157.63872283101082L233.08838131313126,158.35499548316002L233.3950059185606,160.35434600114823L233.7026516335227,159.2830334544182L234.00665052872472,153.35880568027497L234.3131292613636,158.9518366098404L234.61844101167927,156.38395067453385L234.92098117897726,155.0980137526989L235.2324195864899,154.91986607909203L235.53714784564391,150.57481309175492L235.84333483270197,161.41958173513413L236.15229340277776,158.8563483595848L236.46110610006312,155.22813772559167L236.7742949810606,155.77714505195618L237.0816489504419,143.17826642990113L237.38973228377523,132.2262884616852L237.7020459280303,130.7830137848854L238.00794116950757,134.18275841474534L238.30435467960854,131.4341717004776L238.60572786458332,149.65771549344063L238.9075386679293,115.6653173804283L239.2092035984848,151.27081915140153L239.5149529671717,152.09526645541192L239.81793075284088,141.45440863966942L240.118720446654,148.38767217993737L240.42140648674243,149.1317019402981L240.7173823784722,151.51724129319192L241.01729683554294,151.33309065699578L241.33077746212118,150.14280551075936L241.6371103219697,156.98149865269662L241.94431841856056,149.99798008203507L242.2601330097853,152.71352412700654L242.5629649226641,157.07284074425698L242.87236111111108,154.27451595067978L243.18102793560604,155.40079411268235L243.48706904987372,153.83086114525796L243.7935477825126,156.69391032457352L244.09287874842167,159.55777185559273L244.39148035037874,156.60131805539132L244.69722971906566,152.85149731636048L245.11311304450754,159.9439817905426L245.48742262468434,154.2422539830208L245.7998821417298,155.49510603547097L246.10927833017675,162.77365597486497L246.41736166351006,156.96797352433205L246.72763308869946,152.92751550078393L247.02623469065654,159.47786071300507L247.3314005681818,159.8431499540806L247.6346700994318,157.9834553539753L247.94596263415403,153.98087718486786L248.26192309816918,156.1950472533703L248.56825595801766,156.07844313383103L248.86758692392672,147.7867112696171L249.17523263888884,151.35551472902299L249.4719378945707,139.4830737054348L249.7784166272096,143.08133282661439L250.08606234217172,145.7719049692154L250.38524743529038,149.52896302342415L250.69464362373733,139.26656615138054L250.9955791903409,158.98570218086243L251.30132855902775,149.30971246361733L251.61480918560605,146.789185577631L251.92245490056817,154.34146639108658L252.22849601483583,147.2906492292881L252.53278665561865,155.06900119185448L252.8413076073232,157.0451205611229L253.13932571811867,157.35388278365136L253.43953192077018,155.4694589316845L253.73973812342166,149.20728229880334L254.0460709832702,155.6177394926548L254.357217645202,155.5997622549534L254.6581532118055,153.66934558153153L254.9646319444444,152.55825945138932L255.2714024226641,154.2976996243L255.5700040246212,153.33825951218606L255.87531577493684,161.8664490222931L256.1771265782828,159.79389717578889L256.48637689393934,155.10941305160523L256.78862531565653,157.00785788297654L257.08751866319443,157.57285376787186L257.39151755839646,164.15589349865914L257.68793106849745,156.04888724684716L257.9933886916035,156.65775012373925L258.29767933238634,157.96077280640603L258.60094886363635,161.73097091317177L258.91282488952015,153.5814849972725L259.22280456912875,153.08883061408997L259.5246153724747,162.7837417960167L259.8379501262626,158.3733894467354L260.14282425820704,160.43466859459878L260.44842775410353,158.28465321063996L260.75228077651514,158.1520183324814L261.0552585621843,158.647711122036L261.3631960227272,156.73510288596154L261.6651526988636,161.7275790810585L261.96302493686863,159.7037577867508L262.25929257417926,157.78120087981225L262.5497252998737,160.61579664945603L262.85007737531566,158.38436146974564L263.1524716698232,161.640773499012L263.45165676294187,158.24234762191773L263.7505501104798,160.10713260769845L264.05148567708335,156.55130040049553L264.35154600694443,159.64167090654374L264.6384777856692,164.24757846593857L264.94306017203286,159.73461660146714L265.2473508128156,163.44373008012772L265.5462441603535,163.10475786924363L265.84017783301766,159.87734785079957L266.1333821417298,165.39577429890633L266.4389856376263,161.3453517794609L266.7406505681818,160.15160095095635L267.0396897885101,163.6171777188778L267.34135471906563,159.12909808158875L267.6536683633207,161.18836745023728L267.961022332702,163.36566519141198L268.2705643939394,161.897692912817" style="fill: none;" fill="none"></path></g></g></g></g></g></g><g transform="translate(41, 177)" clip-path="url(#clip_1)"><clipPath id="clip_1"><rect width="288" height="23"></rect></clipPath><g><g><line x1="0" y1="0" x2="0" y2="5" style="visibility: inherit;" fill="rgb(0, 0, 0)" stroke="rgb(204, 204, 204)" stroke-width="1px"></line><line x1="26.257102272727273" y1="0" x2="26.257102272727273" y2="5" style="visibility: inherit;" fill="rgb(0, 0, 0)" stroke="rgb(204, 204, 204)" stroke-width="1px"></line><line x1="52.51420454545455" y1="0" x2="52.51420454545455" y2="5" style="visibility: inherit;" fill="rgb(0, 0, 0)" stroke="rgb(204, 204, 204)" stroke-width="1px"></line><line x1="78.77130681818183" y1="0" x2="78.77130681818183" y2="5" style="visibility: inherit;" fill="rgb(0, 0, 0)" stroke="rgb(204, 204, 204)" stroke-width="1px"></line><line x1="105.0284090909091" y1="0" x2="105.0284090909091" y2="5" style="visibility: inherit;" fill="rgb(0, 0, 0)" stroke="rgb(204, 204, 204)" stroke-width="1px"></line><line x1="131.28551136363635" y1="0" x2="131.28551136363635" y2="5" style="visibility: inherit;" fill="rgb(0, 0, 0)" stroke="rgb(204, 204, 204)" stroke-width="1px"></line><line x1="157.54261363636363" y1="0" x2="157.54261363636363" y2="5" style="visibility: inherit;" fill="rgb(0, 0, 0)" stroke="rgb(204, 204, 204)" stroke-width="1px"></line><line x1="183.79971590909088" y1="0" x2="183.79971590909088" y2="5" style="visibility: inherit;" fill="rgb(0, 0, 0)" stroke="rgb(204, 204, 204)" stroke-width="1px"></line><line x1="210.05681818181816" y1="0" x2="210.05681818181816" y2="5" style="visibility: inherit;" fill="rgb(0, 0, 0)" stroke="rgb(204, 204, 204)" stroke-width="1px"></line><line x1="236.31392045454544" y1="0" x2="236.31392045454544" y2="5" style="visibility: inherit;" fill="rgb(0, 0, 0)" stroke="rgb(204, 204, 204)" stroke-width="1px"></line><line x1="262.5710227272727" y1="0" x2="262.5710227272727" y2="5" style="visibility: inherit;" fill="rgb(0, 0, 0)" stroke="rgb(204, 204, 204)" stroke-width="1px"></line><line x1="288.828125" y1="0" x2="288.828125" y2="5" style="visibility: inherit;" fill="rgb(0, 0, 0)" stroke="rgb(204, 204, 204)" stroke-width="1px"></line></g><g transform="translate(0, 8)"><text x="0" y="0" dx="0em" dy="0.95em" style="text-anchor: middle; visibility: hidden; font-family: Roboto, sans-serif; font-size: 12px; font-weight: 200;" fill="rgb(33, 33, 33)" stroke="none" stroke-width="1px">-0.05</text><text x="26.257102272727273" y="0" dx="0em" dy="0.95em" style="text-anchor: middle; visibility: inherit; font-family: Roboto, sans-serif; font-size: 12px; font-weight: 200;" fill="rgb(33, 33, 33)" stroke="none" stroke-width="1px">0</text><text x="52.51420454545455" y="0" dx="0em" dy="0.95em" style="text-anchor: middle; visibility: inherit; font-family: Roboto, sans-serif; font-size: 12px; font-weight: 200;" fill="rgb(33, 33, 33)" stroke="none" stroke-width="1px">0.05</text><text x="78.77130681818183" y="0" dx="0em" dy="0.95em" style="text-anchor: middle; visibility: inherit; font-family: Roboto, sans-serif; font-size: 12px; font-weight: 200;" fill="rgb(33, 33, 33)" stroke="none" stroke-width="1px">0.1</text><text x="105.0284090909091" y="0" dx="0em" dy="0.95em" style="text-anchor: middle; visibility: inherit; font-family: Roboto, sans-serif; font-size: 12px; font-weight: 200;" fill="rgb(33, 33, 33)" stroke="none" stroke-width="1px">0.15</text><text x="131.28551136363635" y="0" dx="0em" dy="0.95em" style="text-anchor: middle; visibility: inherit; font-family: Roboto, sans-serif; font-size: 12px; font-weight: 200;" fill="rgb(33, 33, 33)" stroke="none" stroke-width="1px">0.2</text><text x="157.54261363636363" y="0" dx="0em" dy="0.95em" style="text-anchor: middle; visibility: inherit; font-family: Roboto, sans-serif; font-size: 12px; font-weight: 200;" fill="rgb(33, 33, 33)" stroke="none" stroke-width="1px">0.25</text><text x="183.79971590909088" y="0" dx="0em" dy="0.95em" style="text-anchor: middle; visibility: inherit; font-family: Roboto, sans-serif; font-size: 12px; font-weight: 200;" fill="rgb(33, 33, 33)" stroke="none" stroke-width="1px">0.3</text><text x="210.05681818181816" y="0" dx="0em" dy="0.95em" style="text-anchor: middle; visibility: inherit; font-family: Roboto, sans-serif; font-size: 12px; font-weight: 200;" fill="rgb(33, 33, 33)" stroke="none" stroke-width="1px">0.35</text><text x="236.31392045454544" y="0" dx="0em" dy="0.95em" style="text-anchor: middle; visibility: inherit; font-family: Roboto, sans-serif; font-size: 12px; font-weight: 200;" fill="rgb(33, 33, 33)" stroke="none" stroke-width="1px">0.4</text><text x="262.5710227272727" y="0" dx="0em" dy="0.95em" style="text-anchor: middle; visibility: inherit; font-family: Roboto, sans-serif; font-size: 12px; font-weight: 200;" fill="rgb(33, 33, 33)" stroke="none" stroke-width="1px">0.45</text><text x="288.828125" y="0" dx="0em" dy="0.95em" style="text-anchor: middle; visibility: hidden; font-family: Roboto, sans-serif; font-size: 12px; font-weight: 200;" fill="rgb(33, 33, 33)" stroke="none" stroke-width="1px">0.5</text></g><line x1="0" y1="0" x2="288.828125" y2="0" fill="rgb(0, 0, 0)" stroke="rgb(204, 204, 204)" stroke-width="1px"></line></g></g></g></g></svg>