<svg viewBox="0 0 330 200" xmlns="http://www.w3.org/2000/svg"><g><g><g><g><g><line x1="40" y1="171.029026230937" x2="35" y2="171.029026230937" style="visibility: inherit;" fill="rgb(0, 0, 0)" stroke="rgb(204, 204, 204)" stroke-width="1px"></line><line x1="40" y1="148.13077000018203" x2="35" y2="148.13077000018203" style="visibility: inherit;" fill="rgb(0, 0, 0)" stroke="rgb(204, 204, 204)" stroke-width="1px"></line><line x1="40" y1="125.232513769427" x2="35" y2="125.232513769427" style="visibility: inherit;" fill="rgb(0, 0, 0)" stroke="rgb(204, 204, 204)" stroke-width="1px"></line><line x1="40" y1="102.33425753867199" x2="35" y2="102.33425753867199" style="visibility: inherit;" fill="rgb(0, 0, 0)" stroke="rgb(204, 204, 204)" stroke-width="1px"></line><line x1="40" y1="79.43600130791702" x2="35" y2="79.43600130791702" style="visibility: inherit;" fill="rgb(0, 0, 0)" stroke="rgb(204, 204, 204)" stroke-width="1px"></line><line x1="40" y1="56.53774507716201" x2="35" y2="56.53774507716201" style="visibility: inherit;" fill="rgb(0, 0, 0)" stroke="rgb(204, 204, 204)" stroke-width="1px"></line><line x1="40" y1="33.63948884640699" x2="35" y2="33.63948884640699" style="visibility: inherit;" fill="rgb(0, 0, 0)" stroke="rgb(204, 204, 204)" stroke-width="1px"></line><line x1="40" y1="10.741232615652" x2="35" y2="10.741232615652" style="visibility: inherit;" fill="rgb(0, 0, 0)" stroke="rgb(204, 204, 204)" stroke-width="1px"></line></g><g transform="translate(30, 0)"><text x="0" y="171.029026230937" dx="0em" dy="0.3em" style="text-anchor: end; visibility: inherit; font-family: Roboto, sans-serif; font-size: 12px; font-weight: 200;" fill="rgb(33, 33, 33)" stroke="none" stroke-width="1px">0.2</text><text x="0" y="148.13077000018203" dx="0em" dy="0.3em" style="text-anchor: end; visibility: hidden; font-family: Roboto, sans-serif; font-size: 12px; font-weight: 200;" fill="rgb(33, 33, 33)" stroke="none" stroke-width="1px">0.3</text><text x="0" y="125.232513769427" dx="0em" dy="0.3em" style="text-anchor: end; visibility: inherit; font-family: Roboto, sans-serif; font-size: 12px; font-weight: 200;" fill="rgb(33, 33, 33)" stroke="none" stroke-width="1px">0.4</text><text x="0" y="102.33425753867199" dx="0em" dy="0.3em" style="text-anchor: end; visibility: hidden; font-family: Roboto, sans-serif; font-size: 12px; font-weight: 200;" fill="rgb(33, 33, 33)" stroke="none" stroke-width="1px">0.5</text><text x="0" y="79.43600130791702" dx="0em" dy="0.3em" style="text-anchor: end; visibility: inherit; font-family: Roboto, sans-serif; font-size: 12px; font-weight: 200;" fill="rgb(33, 33, 33)" stroke="none" stroke-width="1px">0.6</text><text x="0" y="56.53774507716201" dx="0em" dy="0.3em" style="text-anchor: end; visibility: hidden; font-family: Roboto, sans-serif; font-size: 12px; font-weight: 200;" fill="rgb(33, 33, 33)" stroke="none" stroke-width="1px">0.7</text><text x="0" y="33.63948884640699" dx="0em" dy="0.3em" style="text-anchor: end; visibility: inherit; font-family: Roboto, sans-serif; font-size: 12px; font-weight: 200;" fill="rgb(33, 33, 33)" stroke="none" stroke-width="1px">0.8</text><text x="0" y="10.741232615652" dx="0em" dy="0.3em" style="text-anchor: end; visibility: hidden; font-family: Roboto, sans-serif; font-size: 12px; font-weight: 200;" fill="rgb(33, 33, 33)" stroke="none" stroke-width="1px">0.9</text></g><line x1="40" y1="0" x2="40" y2="177" fill="rgb(0, 0, 0)" stroke="rgb(204, 204, 204)" stroke-width="1px"></line></g></g><g transform="translate(40, 0)" clip-path="url(#clip_0)"><clipPath id="clip_0"><rect width="290" height="177"></rect></clipPath><g><g><g><line x1="27.752048297460455" y1="0" x2="27.752048297460455" y2="177" fill="rgb(0, 0, 0)" stroke="rgb(66, 66, 66)" stroke-width="1px" opacity="0.25"></line><line x1="65.2689652857031" y1="0" x2="65.2689652857031" y2="177" fill="rgb(0, 0, 0)" stroke="rgb(66, 66, 66)" stroke-width="1px" opacity="0.25"></line><line x1="102.78588227394575" y1="0" x2="102.78588227394575" y2="177" fill="rgb(0, 0, 0)" stroke="rgb(66, 66, 66)" stroke-width="1px" opacity="0.25"></line><line x1="140.3027992621884" y1="0" x2="140.3027992621884" y2="177" fill="rgb(0, 0, 0)" stroke="rgb(66, 66, 66)" stroke-width="1px" opacity="0.25"></line><line x1="177.81971625043104" y1="0" x2="177.81971625043104" y2="177" fill="rgb(0, 0, 0)" stroke="rgb(66, 66, 66)" stroke-width="1px" opacity="0.25"></line><line x1="215.33663323867367" y1="0" x2="215.33663323867367" y2="177" fill="rgb(0, 0, 0)" stroke="rgb(66, 66, 66)" stroke-width="1px" opacity="0.25"></line><line x1="252.85355022691635" y1="0" x2="252.85355022691635" y2="177" fill="rgb(0, 0, 0)" stroke="rgb(66, 66, 66)" stroke-width="1px" opacity="0.25"></line></g><g><line x1="0" y1="171.029026230937" x2="290" y2="171.029026230937" fill="rgb(0, 0, 0)" stroke="rgb(66, 66, 66)" stroke-width="1px" opacity="0.25"></line><line x1="0" y1="148.13077000018203" x2="290" y2="148.13077000018203" fill="rgb(0, 0, 0)" stroke="rgb(66, 66, 66)" stroke-width="1px" opacity="0.25"></line><line x1="0" y1="125.232513769427" x2="290" y2="125.232513769427" fill="rgb(0, 0, 0)" stroke="rgb(66, 66, 66)" stroke-width="1px" opacity="0.25"></line><line x1="0" y1="102.33425753867199" x2="290" y2="102.33425753867199" fill="rgb(0, 0, 0)" stroke="rgb(66, 66, 66)" stroke-width="1px" opacity="0.25"></line><line x1="0" y1="79.43600130791702" x2="290" y2="79.43600130791702" fill="rgb(0, 0, 0)" stroke="rgb(66, 66, 66)" stroke-width="1px" opacity="0.25"></line><line x1="0" y1="56.53774507716201" x2="290" y2="56.53774507716201" fill="rgb(0, 0, 0)" stroke="rgb(66, 66, 66)" stroke-width="1px" opacity="0.25"></line><line x1="0" y1="33.63948884640699" x2="290" y2="33.63948884640699" fill="rgb(0, 0, 0)" stroke="rgb(66, 66, 66)" stroke-width="1px" opacity="0.25"></line><line x1="0" y1="10.741232615652" x2="290" y2="10.741232615652" fill="rgb(0, 0, 0)" stroke="rgb(66, 66, 66)" stroke-width="1px" opacity="0.25"></line></g></g></g><g><g><line x1="0" y1="216.82553869244703" x2="290" y2="216.82553869244703" fill="rgb(0, 0, 0)" stroke="rgb(153, 153, 153)" stroke-width="1.5px"></line></g></g><g><g><line x1="27.752048297460455" y1="0" x2="27.752048297460455" y2="177" fill="rgb(0, 0, 0)" stroke="rgb(153, 153, 153)" stroke-width="1.5px"></line></g></g><g><g><g><g><g><path stroke="rgb(255, 112, 67)" stroke-width="2px" d="M27.752048297460455,171.0290255485158L31.503739996284718,99.47197695997271L35.25543169510899,143.76919728266904L39.00712339393325,162.82826889564868L42.758815092757516,139.90093556158996L46.510506791581776,130.54390398475041L50.26219849040604,109.51198150514405L54.0138901892303,121.04735204698989L57.76558188805457,135.07518704179697L61.517273586878844,146.4725372138398L65.2689652857031,136.67763894195053L69.02065698452736,144.3286454980815L72.77234868335164,115.2805488890085L76.5240403821759,122.31995131289412L80.27573208100016,131.70117677775673L84.02742377982442,132.16694307506782L87.77911547864869,129.3927012204036L91.53080717747295,127.72845667347194L95.28249887629723,128.62516272600158L99.03419057512147,124.21484070028542L102.78588227394575,130.7282535639983L106.53757397277002,139.9002470747717L110.28926567159428,143.1924811528294L114.04095737041855,123.79599642075198L117.7926490692428,130.4768231056444L121.54434076806707,123.95735582422031L125.29603246689133,121.41431520480009L129.0477241657156,119.88849249892662L132.79941586453987,122.02610124880573L136.55110756336413,122.0453129697459L140.3027992621884,138.58569954645438L144.05449096101265,142.40372693993535L147.80618265983694,143.74703130677642L151.5578743586612,142.4474250062411L155.30956605748545,144.7207619510238L159.06125775630971,143.0316634126027L162.812949455134,128.33189190408183L166.56464115395823,136.2514420800548L170.3163328527825,141.00317216681822L174.06802455160675,143.8542102121009L177.81971625043104,131.98379919959353L181.5714079492553,138.44258643106315L185.32309964807956,139.26475811828578L189.07479134690385,141.86364995009149L192.8264830457281,132.15809428209153L196.57817474455237,132.4409621798947L200.32986644337663,141.76998486527316L204.08155814220086,130.7332640007697L207.83324984102515,116.32055803726328L211.5849415398494,119.8853397842206L215.33663323867367,122.02420883237656L219.08832493749796,134.67769951249414L222.84001663632222,133.9527253181174L226.59170833514648,154.88944670787538L230.34340003397074,119.65466084101735" style="fill: none;" fill="none"></path></g></g></g></g><g opacity="0.2"><g><g><g><path stroke="rgb(255, 112, 67)" stroke-width="2px" d="M27.752048297460455,171.0290255485158L31.503739996284718,56.53774780684687L35.25543169510899,186.2945287924575L39.00712339393325,185.24173711251274L42.758815092757516,109.96700916064287L46.510506791581776,117.59976078261371L50.26219849040604,79.4359958485473L54.0138901892303,137.8660330365583L57.76558188805457,155.76351889246803L61.517273586878844,163.39627392654495L65.2689652857031,122.0741305405381L69.02065698452736,155.76351889246803L72.77234868335164,71.80325105078857L76.5240403821759,132.86526402655542L80.27573208100016,145.76198769667442L84.02742377982442,132.86526402655542L87.77911547864869,125.23251240458457L91.53080717747295,125.23251240458457L95.28249887629723,129.97008520065427L99.03419057512147,117.59976078261371L102.78588227394575,140.4980156485263L106.53757397277002,153.65793553257848L110.28926567159428,148.13076727049716L114.04095737041855,94.70149909248902L117.7926490692428,140.4980156485263L121.54434076806707,114.17818270463411L125.29603246689133,117.59976078261371L129.0477241657156,117.59976078261371L132.79941586453987,125.23251240458457L136.55110756336413,122.0741305405381L140.3027992621884,163.39627392654495L144.05449096101265,148.13076727049716L147.80618265983694,145.76198769667442L151.5578743586612,140.4980156485263L155.30956605748545,148.13076727049716L159.06125775630971,140.4980156485263L162.812949455134,106.28223486873009L166.56464115395823,148.13076727049716L170.3163328527825,148.13076727049716L174.06802455160675,148.13076727049716L177.81971625043104,114.17818270463411L181.5714079492553,148.13076727049716L185.32309964807956,140.4980156485263L189.07479134690385,145.76198769667442L192.8264830457281,117.59976078261371L196.57817474455237,132.86526402655542L200.32986644337663,155.76351889246803L204.08155814220086,114.17818270463411L207.83324984102515,94.70149909248902L211.5849415398494,125.23251240458457L215.33663323867367,125.23251240458457L219.08832493749796,153.65793553257848L222.84001663632222,132.86526402655542L226.59170833514648,186.2945287924575L230.34340003397074,66.80248204078572" style="fill: none;" fill="none"></path></g></g></g></g></g></g><g transform="translate(40, 177)" clip-path="url(#clip_1)"><clipPath id="clip_1"><rect width="290" height="23"></rect></clipPath><g><g><line x1="27.752048297460455" y1="0" x2="27.752048297460455" y2="5" style="visibility: inherit;" fill="rgb(0, 0, 0)" stroke="rgb(204, 204, 204)" stroke-width="1px"></line><line x1="65.2689652857031" y1="0" x2="65.2689652857031" y2="5" style="visibility: inherit;" fill="rgb(0, 0, 0)" stroke="rgb(204, 204, 204)" stroke-width="1px"></line><line x1="102.78588227394575" y1="0" x2="102.78588227394575" y2="5" style="visibility: inherit;" fill="rgb(0, 0, 0)" stroke="rgb(204, 204, 204)" stroke-width="1px"></line><line x1="140.3027992621884" y1="0" x2="140.3027992621884" y2="5" style="visibility: inherit;" fill="rgb(0, 0, 0)" stroke="rgb(204, 204, 204)" stroke-width="1px"></line><line x1="177.81971625043104" y1="0" x2="177.81971625043104" y2="5" style="visibility: inherit;" fill="rgb(0, 0, 0)" stroke="rgb(204, 204, 204)" stroke-width="1px"></line><line x1="215.33663323867367" y1="0" x2="215.33663323867367" y2="5" style="visibility: inherit;" fill="rgb(0, 0, 0)" stroke="rgb(204, 204, 204)" stroke-width="1px"></line><line x1="252.85355022691635" y1="0" x2="252.85355022691635" y2="5" style="visibility: inherit;" fill="rgb(0, 0, 0)" stroke="rgb(204, 204, 204)" stroke-width="1px"></line></g><g transform="translate(0, 8)"><text x="27.752048297460455" y="0" dx="0em" dy="0.95em" style="text-anchor: middle; visibility: inherit; font-family: Roboto, sans-serif; font-size: 12px; font-weight: 200;" fill="rgb(33, 33, 33)" stroke="none" stroke-width="1px">0</text><text x="65.2689652857031" y="0" dx="0em" dy="0.95em" style="text-anchor: middle; visibility: inherit; font-family: Roboto, sans-serif; font-size: 12px; font-weight: 200;" fill="rgb(33, 33, 33)" stroke="none" stroke-width="1px">10</text><text x="102.78588227394575" y="0" dx="0em" dy="0.95em" style="text-anchor: middle; visibility: inherit; font-family: Roboto, sans-serif; font-size: 12px; font-weight: 200;" fill="rgb(33, 33, 33)" stroke="none" stroke-width="1px">20</text><text x="140.3027992621884" y="0" dx="0em" dy="0.95em" style="text-anchor: middle; visibility: inherit; font-family: Roboto, sans-serif; font-size: 12px; font-weight: 200;" fill="rgb(33, 33, 33)" stroke="none" stroke-width="1px">30</text><text x="177.81971625043104" y="0" dx="0em" dy="0.95em" style="text-anchor: middle; visibility: inherit; font-family: Roboto, sans-serif; font-size: 12px; font-weight: 200;" fill="rgb(33, 33, 33)" stroke="none" stroke-width="1px">40</text><text x="215.33663323867367" y="0" dx="0em" dy="0.95em" style="text-anchor: middle; visibility: inherit; font-family: Roboto, sans-serif; font-size: 12px; font-weight: 200;" fill="rgb(33, 33, 33)" stroke="none" stroke-width="1px">50</text><text x="252.85355022691635" y="0" dx="0em" dy="0.95em" style="text-anchor: middle; visibility: inherit; font-family: Roboto, sans-serif; font-size: 12px; font-weight: 200;" fill="rgb(33, 33, 33)" stroke="none" stroke-width="1px">60</text></g><line x1="0" y1="0" x2="290" y2="0" fill="rgb(0, 0, 0)" stroke="rgb(204, 204, 204)" stroke-width="1px"></line></g></g></g></g></svg>