<svg viewBox="0 0 330 200" xmlns="http://www.w3.org/2000/svg"><g><g><g><g><g><line x1="50" y1="175.34180781102074" x2="45" y2="175.34180781102074" style="visibility: inherit;" fill="rgb(0, 0, 0)" stroke="rgb(204, 204, 204)" stroke-width="1px"></line><line x1="50" y1="162.82601778401886" x2="45" y2="162.82601778401886" style="visibility: inherit;" fill="rgb(0, 0, 0)" stroke="rgb(204, 204, 204)" stroke-width="1px"></line><line x1="50" y1="150.31022775701697" x2="45" y2="150.31022775701697" style="visibility: inherit;" fill="rgb(0, 0, 0)" stroke="rgb(204, 204, 204)" stroke-width="1px"></line><line x1="50" y1="137.79443773001506" x2="45" y2="137.79443773001506" style="visibility: inherit;" fill="rgb(0, 0, 0)" stroke="rgb(204, 204, 204)" stroke-width="1px"></line><line x1="50" y1="125.27864770301318" x2="45" y2="125.27864770301318" style="visibility: inherit;" fill="rgb(0, 0, 0)" stroke="rgb(204, 204, 204)" stroke-width="1px"></line><line x1="50" y1="112.76285767601132" x2="45" y2="112.76285767601132" style="visibility: inherit;" fill="rgb(0, 0, 0)" stroke="rgb(204, 204, 204)" stroke-width="1px"></line><line x1="50" y1="100.24706764900941" x2="45" y2="100.24706764900941" style="visibility: inherit;" fill="rgb(0, 0, 0)" stroke="rgb(204, 204, 204)" stroke-width="1px"></line><line x1="50" y1="87.73127762200752" x2="45" y2="87.73127762200752" style="visibility: inherit;" fill="rgb(0, 0, 0)" stroke="rgb(204, 204, 204)" stroke-width="1px"></line><line x1="50" y1="75.21548759500565" x2="45" y2="75.21548759500565" style="visibility: inherit;" fill="rgb(0, 0, 0)" stroke="rgb(204, 204, 204)" stroke-width="1px"></line><line x1="50" y1="62.69969756800376" x2="45" y2="62.69969756800376" style="visibility: inherit;" fill="rgb(0, 0, 0)" stroke="rgb(204, 204, 204)" stroke-width="1px"></line><line x1="50" y1="50.18390754100185" x2="45" y2="50.18390754100185" style="visibility: inherit;" fill="rgb(0, 0, 0)" stroke="rgb(204, 204, 204)" stroke-width="1px"></line><line x1="50" y1="37.66811751399998" x2="45" y2="37.66811751399998" style="visibility: inherit;" fill="rgb(0, 0, 0)" stroke="rgb(204, 204, 204)" stroke-width="1px"></line><line x1="50" y1="25.152327486998097" x2="45" y2="25.152327486998097" style="visibility: inherit;" fill="rgb(0, 0, 0)" stroke="rgb(204, 204, 204)" stroke-width="1px"></line><line x1="50" y1="12.63653745999619" x2="45" y2="12.63653745999619" style="visibility: inherit;" fill="rgb(0, 0, 0)" stroke="rgb(204, 204, 204)" stroke-width="1px"></line><line x1="50" y1="0.12074743299432333" x2="45" y2="0.12074743299432333" style="visibility: inherit;" fill="rgb(0, 0, 0)" stroke="rgb(204, 204, 204)" stroke-width="1px"></line></g><g transform="translate(40, 0)"><text x="0" y="175.34180781102074" dx="0em" dy="0.3em" style="text-anchor: end; visibility: hidden; font-family: Roboto, sans-serif; font-size: 12px; font-weight: 200;" fill="rgb(33, 33, 33)" stroke="none" stroke-width="1px">0.2</text><text x="0" y="162.82601778401886" dx="0em" dy="0.3em" style="text-anchor: end; visibility: inherit; font-family: Roboto, sans-serif; font-size: 12px; font-weight: 200;" fill="rgb(33, 33, 33)" stroke="none" stroke-width="1px">0.22</text><text x="0" y="150.31022775701697" dx="0em" dy="0.3em" style="text-anchor: end; visibility: hidden; font-family: Roboto, sans-serif; font-size: 12px; font-weight: 200;" fill="rgb(33, 33, 33)" stroke="none" stroke-width="1px">0.24</text><text x="0" y="137.79443773001506" dx="0em" dy="0.3em" style="text-anchor: end; visibility: inherit; font-family: Roboto, sans-serif; font-size: 12px; font-weight: 200;" fill="rgb(33, 33, 33)" stroke="none" stroke-width="1px">0.26</text><text x="0" y="125.27864770301318" dx="0em" dy="0.3em" style="text-anchor: end; visibility: hidden; font-family: Roboto, sans-serif; font-size: 12px; font-weight: 200;" fill="rgb(33, 33, 33)" stroke="none" stroke-width="1px">0.28</text><text x="0" y="112.76285767601132" dx="0em" dy="0.3em" style="text-anchor: end; visibility: inherit; font-family: Roboto, sans-serif; font-size: 12px; font-weight: 200;" fill="rgb(33, 33, 33)" stroke="none" stroke-width="1px">0.3</text><text x="0" y="100.24706764900941" dx="0em" dy="0.3em" style="text-anchor: end; visibility: hidden; font-family: Roboto, sans-serif; font-size: 12px; font-weight: 200;" fill="rgb(33, 33, 33)" stroke="none" stroke-width="1px">0.32</text><text x="0" y="87.73127762200752" dx="0em" dy="0.3em" style="text-anchor: end; visibility: inherit; font-family: Roboto, sans-serif; font-size: 12px; font-weight: 200;" fill="rgb(33, 33, 33)" stroke="none" stroke-width="1px">0.34</text><text x="0" y="75.21548759500565" dx="0em" dy="0.3em" style="text-anchor: end; visibility: hidden; font-family: Roboto, sans-serif; font-size: 12px; font-weight: 200;" fill="rgb(33, 33, 33)" stroke="none" stroke-width="1px">0.36</text><text x="0" y="62.69969756800376" dx="0em" dy="0.3em" style="text-anchor: end; visibility: inherit; font-family: Roboto, sans-serif; font-size: 12px; font-weight: 200;" fill="rgb(33, 33, 33)" stroke="none" stroke-width="1px">0.38</text><text x="0" y="50.18390754100185" dx="0em" dy="0.3em" style="text-anchor: end; visibility: hidden; font-family: Roboto, sans-serif; font-size: 12px; font-weight: 200;" fill="rgb(33, 33, 33)" stroke="none" stroke-width="1px">0.4</text><text x="0" y="37.66811751399998" dx="0em" dy="0.3em" style="text-anchor: end; visibility: inherit; font-family: Roboto, sans-serif; font-size: 12px; font-weight: 200;" fill="rgb(33, 33, 33)" stroke="none" stroke-width="1px">0.42</text><text x="0" y="25.152327486998097" dx="0em" dy="0.3em" style="text-anchor: end; visibility: hidden; font-family: Roboto, sans-serif; font-size: 12px; font-weight: 200;" fill="rgb(33, 33, 33)" stroke="none" stroke-width="1px">0.44</text><text x="0" y="12.63653745999619" dx="0em" dy="0.3em" style="text-anchor: end; visibility: inherit; font-family: Roboto, sans-serif; font-size: 12px; font-weight: 200;" fill="rgb(33, 33, 33)" stroke="none" stroke-width="1px">0.46</text><text x="0" y="0.12074743299432333" dx="0em" dy="0.3em" style="text-anchor: end; visibility: hidden; font-family: Roboto, sans-serif; font-size: 12px; font-weight: 200;" fill="rgb(33, 33, 33)" stroke="none" stroke-width="1px">0.48</text></g><line x1="50" y1="0" x2="50" y2="177" fill="rgb(0, 0, 0)" stroke="rgb(204, 204, 204)" stroke-width="1px"></line></g></g><g transform="translate(50, 0)" clip-path="url(#clip_0)"><clipPath id="clip_0"><rect width="280" height="177"></rect></clipPath><g><g><g><line x1="24.235042844055094" y1="0" x2="24.235042844055094" y2="177" fill="rgb(0, 0, 0)" stroke="rgb(66, 66, 66)" stroke-width="1px" opacity="0.25"></line><line x1="54.69502726439866" y1="0" x2="54.69502726439866" y2="177" fill="rgb(0, 0, 0)" stroke="rgb(66, 66, 66)" stroke-width="1px" opacity="0.25"></line><line x1="85.15501168474223" y1="0" x2="85.15501168474223" y2="177" fill="rgb(0, 0, 0)" stroke="rgb(66, 66, 66)" stroke-width="1px" opacity="0.25"></line><line x1="115.61499610508581" y1="0" x2="115.61499610508581" y2="177" fill="rgb(0, 0, 0)" stroke="rgb(66, 66, 66)" stroke-width="1px" opacity="0.25"></line><line x1="146.0749805254294" y1="0" x2="146.0749805254294" y2="177" fill="rgb(0, 0, 0)" stroke="rgb(66, 66, 66)" stroke-width="1px" opacity="0.25"></line><line x1="176.53496494577297" y1="0" x2="176.53496494577297" y2="177" fill="rgb(0, 0, 0)" stroke="rgb(66, 66, 66)" stroke-width="1px" opacity="0.25"></line><line x1="206.99494936611654" y1="0" x2="206.99494936611654" y2="177" fill="rgb(0, 0, 0)" stroke="rgb(66, 66, 66)" stroke-width="1px" opacity="0.25"></line><line x1="237.45493378646012" y1="0" x2="237.45493378646012" y2="177" fill="rgb(0, 0, 0)" stroke="rgb(66, 66, 66)" stroke-width="1px" opacity="0.25"></line><line x1="267.9149182068037" y1="0" x2="267.9149182068037" y2="177" fill="rgb(0, 0, 0)" stroke="rgb(66, 66, 66)" stroke-width="1px" opacity="0.25"></line></g><g><line x1="0" y1="175.34180781102074" x2="280" y2="175.34180781102074" fill="rgb(0, 0, 0)" stroke="rgb(66, 66, 66)" stroke-width="1px" opacity="0.25"></line><line x1="0" y1="162.82601778401886" x2="280" y2="162.82601778401886" fill="rgb(0, 0, 0)" stroke="rgb(66, 66, 66)" stroke-width="1px" opacity="0.25"></line><line x1="0" y1="150.31022775701697" x2="280" y2="150.31022775701697" fill="rgb(0, 0, 0)" stroke="rgb(66, 66, 66)" stroke-width="1px" opacity="0.25"></line><line x1="0" y1="137.79443773001506" x2="280" y2="137.79443773001506" fill="rgb(0, 0, 0)" stroke="rgb(66, 66, 66)" stroke-width="1px" opacity="0.25"></line><line x1="0" y1="125.27864770301318" x2="280" y2="125.27864770301318" fill="rgb(0, 0, 0)" stroke="rgb(66, 66, 66)" stroke-width="1px" opacity="0.25"></line><line x1="0" y1="112.76285767601132" x2="280" y2="112.76285767601132" fill="rgb(0, 0, 0)" stroke="rgb(66, 66, 66)" stroke-width="1px" opacity="0.25"></line><line x1="0" y1="100.24706764900941" x2="280" y2="100.24706764900941" fill="rgb(0, 0, 0)" stroke="rgb(66, 66, 66)" stroke-width="1px" opacity="0.25"></line><line x1="0" y1="87.73127762200752" x2="280" y2="87.73127762200752" fill="rgb(0, 0, 0)" stroke="rgb(66, 66, 66)" stroke-width="1px" opacity="0.25"></line><line x1="0" y1="75.21548759500565" x2="280" y2="75.21548759500565" fill="rgb(0, 0, 0)" stroke="rgb(66, 66, 66)" stroke-width="1px" opacity="0.25"></line><line x1="0" y1="62.69969756800376" x2="280" y2="62.69969756800376" fill="rgb(0, 0, 0)" stroke="rgb(66, 66, 66)" stroke-width="1px" opacity="0.25"></line><line x1="0" y1="50.18390754100185" x2="280" y2="50.18390754100185" fill="rgb(0, 0, 0)" stroke="rgb(66, 66, 66)" stroke-width="1px" opacity="0.25"></line><line x1="0" y1="37.66811751399998" x2="280" y2="37.66811751399998" fill="rgb(0, 0, 0)" stroke="rgb(66, 66, 66)" stroke-width="1px" opacity="0.25"></line><line x1="0" y1="25.152327486998097" x2="280" y2="25.152327486998097" fill="rgb(0, 0, 0)" stroke="rgb(66, 66, 66)" stroke-width="1px" opacity="0.25"></line><line x1="0" y1="12.63653745999619" x2="280" y2="12.63653745999619" fill="rgb(0, 0, 0)" stroke="rgb(66, 66, 66)" stroke-width="1px" opacity="0.25"></line><line x1="0" y1="0.12074743299432333" x2="280" y2="0.12074743299432333" fill="rgb(0, 0, 0)" stroke="rgb(66, 66, 66)" stroke-width="1px" opacity="0.25"></line></g></g></g><g><g><line x1="0" y1="300.49970808103967" x2="280" y2="300.49970808103967" fill="rgb(0, 0, 0)" stroke="rgb(153, 153, 153)" stroke-width="1.5px"></line></g></g><g><g><line x1="24.235042844055094" y1="0" x2="24.235042844055094" y2="177" fill="rgb(0, 0, 0)" stroke="rgb(153, 153, 153)" stroke-width="1.5px"></line></g></g><g><g><g><g><g><path stroke="rgb(255, 112, 67)" stroke-width="2px" d="M24.235042844055094,88.33318485357185L27.28104128608945,134.7726503067755L30.32703972812381,70.76820696535876L33.37303817015817,60.26974090981634L36.41903661219252,89.81552011603766L39.46503505422689,111.92675320216334L42.51103349626124,133.7027950740675L45.557031938295594,74.39047091136747L48.603030380329955,105.74285829110376L51.64902882236431,150.5449816579657L54.69502726439866,109.36258231745875L57.74102570643302,102.63703165054926L60.78702414846738,156.9801157188962L63.833022590501734,153.32863969542103L66.87902103253609,77.04813521883717L69.92501947457045,6.771551210662091L72.97101791660481,107.50351144117147L76.01701635863917,115.35299904748443L79.06301480067353,119.23948806627871L82.10901324270787,89.54047045510997L85.15501168474223,109.66806878570391L88.2010101267766,106.44956346290789L91.24700856881095,106.65671706814318L94.29300701084532,133.06325215175565L97.33900545287966,121.26801951249821L100.38500389491402,114.46366155045088L103.4310023369484,151.4438063500857L106.47700077898274,139.8419665778349L109.5229992210171,102.29646955921125L112.56899766305145,123.15532567077103L115.61499610508581,159.8318310249351L118.66099454712017,81.57680079741633L121.70699298915453,77.00099790470182L124.75299143118889,46.210808799336846L127.79898987322325,121.88860988483874L130.8449883152576,92.85343684585955L133.89098675729196,143.6140959827354L136.9369851993263,164.7882952414867L139.98298364136068,130.80471837336253L143.02898208339502,70.58418942591533L146.0749805254294,90.88943594171027L149.12097896746374,123.41564311329935L152.1669774094981,107.61169495974805L155.21297585153246,75.452262778492L158.2589742935668,165.47124090886814L161.30497273560115,131.87854451187596L164.35097117763556,133.1511425119792L167.3969696196699,97.9126298196559L170.44296806170425,168.2082410083809L173.4889665037386,74.64801553602896L176.53496494577297,56.30616264767562L179.58096338780732,51.42297414265571L182.62696182984166,87.93820986500003L185.67296027187604,61.824039517777415L188.71895871391038,142.62054427488482" style="fill: none;" fill="none"></path></g></g></g></g><g opacity="0.2"><g><g><g><path stroke="rgb(255, 112, 67)" stroke-width="2px" d="M24.235042844055094,88.33318485357185L27.28104128608945,162.63632957869768L30.32703972812381,9.323941357598667L33.37303817015817,47.92354482849848L36.41903661219252,128.39048944768018L39.46503505422689,142.5145486041862L42.51103349626124,164.84288336756038L45.557031938295594,-12.087467116161157L48.603030380329955,151.98153978849015L51.64902882236431,217.0709134390901L54.69502726439866,47.962504637692106L57.74102570643302,92.58530579991407L60.78702414846738,238.317302223191L63.833022590501734,147.85857928186567L66.87902103253609,-37.2829566264867L72.97101791660481,258.5588253972849L76.01701635863917,127.12523747290103L79.06301480067353,125.06862952698555L82.10901324270787,44.99465864620442L85.15501168474223,139.85836243626702L88.2010101267766,101.6219113850025L91.24700856881095,106.96744338610957L94.29300701084532,172.6727419665917L97.33900545287966,103.57525438907736L100.38500389491402,104.2571536248583L103.4310023369484,206.91392892748294L106.47700077898274,122.43922473101566L109.5229992210171,45.97825861598498L112.56899766305145,154.44359830973798L115.61499610508581,214.846576893853L118.66099454712017,-35.80572897373016L121.70699298915453,70.13729411188912L124.75299143118889,0.025527346727515665L127.79898987322325,235.4053082607041L130.8449883152576,49.30067803609361L133.89098675729196,219.75508390269863L136.9369851993263,196.54959393305396L139.98298364136068,79.82935326045762L143.02898208339502,-19.746603794006067L146.0749805254294,121.34730567468816L149.12097896746374,172.2049538315515L152.1669774094981,83.90577274082902L155.21297585153246,27.213114520536404L158.2589742935668,300.49970808103967L161.30497273560115,81.48949992162538L164.35097117763556,135.06003951201495L167.3969696196699,45.0548607831489L170.44296806170425,273.6516577891009L173.4889665037386,-65.69232267060829L176.53496494577297,28.79338331536796L179.58096338780732,44.09819138516134L182.62696182984166,142.71106344835715L185.67296027187604,22.652783997011873L188.71895871391038,263.8153014104189" style="fill: none;" fill="none"></path></g></g></g></g></g></g><g transform="translate(50, 177)" clip-path="url(#clip_1)"><clipPath id="clip_1"><rect width="280" height="23"></rect></clipPath><g><g><line x1="24.235042844055094" y1="0" x2="24.235042844055094" y2="5" style="visibility: inherit;" fill="rgb(0, 0, 0)" stroke="rgb(204, 204, 204)" stroke-width="1px"></line><line x1="54.69502726439866" y1="0" x2="54.69502726439866" y2="5" style="visibility: inherit;" fill="rgb(0, 0, 0)" stroke="rgb(204, 204, 204)" stroke-width="1px"></line><line x1="85.15501168474223" y1="0" x2="85.15501168474223" y2="5" style="visibility: inherit;" fill="rgb(0, 0, 0)" stroke="rgb(204, 204, 204)" stroke-width="1px"></line><line x1="115.61499610508581" y1="0" x2="115.61499610508581" y2="5" style="visibility: inherit;" fill="rgb(0, 0, 0)" stroke="rgb(204, 204, 204)" stroke-width="1px"></line><line x1="146.0749805254294" y1="0" x2="146.0749805254294" y2="5" style="visibility: inherit;" fill="rgb(0, 0, 0)" stroke="rgb(204, 204, 204)" stroke-width="1px"></line><line x1="176.53496494577297" y1="0" x2="176.53496494577297" y2="5" style="visibility: inherit;" fill="rgb(0, 0, 0)" stroke="rgb(204, 204, 204)" stroke-width="1px"></line><line x1="206.99494936611654" y1="0" x2="206.99494936611654" y2="5" style="visibility: inherit;" fill="rgb(0, 0, 0)" stroke="rgb(204, 204, 204)" stroke-width="1px"></line><line x1="237.45493378646012" y1="0" x2="237.45493378646012" y2="5" style="visibility: inherit;" fill="rgb(0, 0, 0)" stroke="rgb(204, 204, 204)" stroke-width="1px"></line><line x1="267.9149182068037" y1="0" x2="267.9149182068037" y2="5" style="visibility: inherit;" fill="rgb(0, 0, 0)" stroke="rgb(204, 204, 204)" stroke-width="1px"></line></g><g transform="translate(0, 8)"><text x="24.235042844055094" y="0" dx="0em" dy="0.95em" style="text-anchor: middle; visibility: inherit; font-family: Roboto, sans-serif; font-size: 12px; font-weight: 200;" fill="rgb(33, 33, 33)" stroke="none" stroke-width="1px">0</text><text x="54.69502726439866" y="0" dx="0em" dy="0.95em" style="text-anchor: middle; visibility: inherit; font-family: Roboto, sans-serif; font-size: 12px; font-weight: 200;" fill="rgb(33, 33, 33)" stroke="none" stroke-width="1px">10</text><text x="85.15501168474223" y="0" dx="0em" dy="0.95em" style="text-anchor: middle; visibility: inherit; font-family: Roboto, sans-serif; font-size: 12px; font-weight: 200;" fill="rgb(33, 33, 33)" stroke="none" stroke-width="1px">20</text><text x="115.61499610508581" y="0" dx="0em" dy="0.95em" style="text-anchor: middle; visibility: inherit; font-family: Roboto, sans-serif; font-size: 12px; font-weight: 200;" fill="rgb(33, 33, 33)" stroke="none" stroke-width="1px">30</text><text x="146.0749805254294" y="0" dx="0em" dy="0.95em" style="text-anchor: middle; visibility: inherit; font-family: Roboto, sans-serif; font-size: 12px; font-weight: 200;" fill="rgb(33, 33, 33)" stroke="none" stroke-width="1px">40</text><text x="176.53496494577297" y="0" dx="0em" dy="0.95em" style="text-anchor: middle; visibility: inherit; font-family: Roboto, sans-serif; font-size: 12px; font-weight: 200;" fill="rgb(33, 33, 33)" stroke="none" stroke-width="1px">50</text><text x="206.99494936611654" y="0" dx="0em" dy="0.95em" style="text-anchor: middle; visibility: inherit; font-family: Roboto, sans-serif; font-size: 12px; font-weight: 200;" fill="rgb(33, 33, 33)" stroke="none" stroke-width="1px">60</text><text x="237.45493378646012" y="0" dx="0em" dy="0.95em" style="text-anchor: middle; visibility: inherit; font-family: Roboto, sans-serif; font-size: 12px; font-weight: 200;" fill="rgb(33, 33, 33)" stroke="none" stroke-width="1px">70</text><text x="267.9149182068037" y="0" dx="0em" dy="0.95em" style="text-anchor: middle; visibility: inherit; font-family: Roboto, sans-serif; font-size: 12px; font-weight: 200;" fill="rgb(33, 33, 33)" stroke="none" stroke-width="1px">80</text></g><line x1="0" y1="0" x2="280" y2="0" fill="rgb(0, 0, 0)" stroke="rgb(204, 204, 204)" stroke-width="1px"></line></g></g></g></g></svg>